<?xml version="1.0" encoding="utf-8"?>
<!-- Generator: Adobe Illustrator 17.0.0, SVG Export Plug-In . SVG Version: 6.00 Build 0)  -->
<!DOCTYPE svg PUBLIC "-//W3C//DTD SVG 1.1//EN" "http://www.w3.org/Graphics/SVG/1.1/DTD/svg11.dtd">
<svg version="1.1" id="Capa_1" xmlns="http://www.w3.org/2000/svg" xmlns:xlink="http://www.w3.org/1999/xlink" x="0px" y="0px"
	 width="31.88px" height="32px" viewBox="0 0 31.88 32" enable-background="new 0 0 31.88 32" xml:space="preserve">
<path fill="#00781E" d="M15.687,32.016c-0.043-1.392-0.086-2.774-0.131-4.21c-0.542,0.068-1.019,0.129-1.495,0.188
	c-1.571,0.195-3.148,0.227-4.726,0.151c-1.939-0.094-3.742-0.719-5.503-1.485c-0.532-0.232-1.057-0.482-1.58-0.733
	c-0.139-0.067-0.263-0.167-0.415-0.266c2.718-0.959,5.54-1.169,8.346-1.569c-2.229-1.692-4.122-3.674-5.707-5.942
	c-1.572-2.249-2.795-4.683-3.828-7.326c2.387,1.245,4.589,2.607,6.646,4.199c2.066,1.599,3.94,3.399,5.645,5.414
	C11.687,13.306,12.849,6.512,15.94,0c3.091,6.512,4.253,13.306,3.001,20.436c1.705-2.015,3.579-3.815,5.645-5.414
	c2.057-1.592,4.259-2.955,6.646-4.199c-1.033,2.643-2.256,5.078-3.828,7.326c-1.586,2.269-3.478,4.25-5.707,5.942
	c2.806,0.4,5.628,0.61,8.346,1.569c-0.152,0.098-0.275,0.199-0.415,0.266c-0.524,0.251-1.048,0.502-1.58,0.733
	c-1.76,0.766-3.563,1.392-5.503,1.485c-1.578,0.076-3.155,0.044-4.726-0.151c-0.477-0.059-0.953-0.12-1.495-0.188
	c-0.045,1.436-0.088,2.818-0.131,4.21H15.687z"/>
<path fill="#00AF25" d="M6.438,23.071c-1.415-0.034-2.832-0.044-4.246-0.111c-0.926-0.044-1.519-0.561-1.695-1.393
	c-0.138-0.653,0.108-1.189,0.606-1.6c0.507-0.419,1.102-0.528,1.685-0.218c0.432,0.23,0.831,0.543,1.198,0.872
	c0.85,0.759,1.672,1.549,2.505,2.326C6.474,22.988,6.456,23.029,6.438,23.071z M10.78,14.669c-0.042-0.622-0.064-1.247-0.133-1.866
	c-0.091-0.818-0.166-1.642-0.342-2.443c-0.232-1.056-1.454-1.556-2.398-1.041c-0.952,0.519-1.205,1.727-0.471,2.54
	c0.623,0.689,1.317,1.315,1.995,1.953c0.412,0.388,0.853,0.746,1.35,1.178C10.781,14.815,10.785,14.741,10.78,14.669z
	 M25.442,23.071c1.415-0.034,2.832-0.044,4.246-0.111c0.926-0.044,1.519-0.561,1.695-1.393c0.138-0.653-0.108-1.189-0.606-1.6
	c-0.507-0.419-1.102-0.528-1.685-0.218c-0.432,0.23-0.831,0.543-1.198,0.872c-0.85,0.759-1.672,1.549-2.505,2.326
	C25.406,22.988,25.424,23.029,25.442,23.071z M21.099,14.989c0.497-0.432,0.938-0.79,1.35-1.178
	c0.678-0.638,1.372-1.263,1.995-1.953c0.734-0.813,0.481-2.02-0.471-2.54c-0.945-0.515-2.166-0.015-2.398,1.041
	c-0.176,0.801-0.252,1.626-0.342,2.443c-0.069,0.619-0.091,1.244-0.133,1.866C21.095,14.741,21.099,14.815,21.099,14.989z"/>
</svg>
