<?xml version="1.0" encoding="utf-8"?>
<!-- Generator: Adobe Illustrator 17.0.0, SVG Export Plug-In . SVG Version: 6.00 Build 0)  -->
<!DOCTYPE svg PUBLIC "-//W3C//DTD SVG 1.1//EN" "http://www.w3.org/Graphics/SVG/1.1/DTD/svg11.dtd">
<svg version="1.1" id="Capa_1" xmlns="http://www.w3.org/2000/svg" xmlns:xlink="http://www.w3.org/1999/xlink" x="0px" y="0px"
	 width="250.329px" height="40.241px" viewBox="0 0 250.329 40.241" enable-background="new 0 0 250.329 40.241"
	 xml:space="preserve">
<path fill="#FFFfff" d="M0,20.12C0,9.008,9.008,0,20.12,0s20.12,9.008,20.12,20.12s-9.008,20.12-20.12,20.12S0,31.232,0,20.12z
	 M20.12,38.88c10.361,0,18.76-8.399,18.76-18.76s-8.399-18.76-18.76-18.76S1.361,9.76,1.361,20.12S9.76,38.88,20.12,38.88z
	 M23.156,18.187c-1.236,1.332-1.81,2.43-1.707,3.263c0.056,0.451,0.297,0.68,0.39,0.752c0.084,0.077,0.322,0.253,0.763,0.253
	c0.855,0,1.951-0.653,3.258-1.941c2.171-2.14,2.476-3.782,2.623-4.572c0.022-0.117,0.041-0.219,0.059-0.279
	c0.035-0.114,0.003-0.237-0.082-0.32c-0.085-0.083-0.209-0.111-0.322-0.073c-0.078,0.026-0.195,0.054-0.331,0.085
	C26.967,15.552,25.222,15.959,23.156,18.187z M25.414,20.063c-1.552,1.53-2.428,1.758-2.812,1.758c-0.032,0-0.056-0.004-0.083-0.007
	l5.205-5.371C27.504,17.268,26.981,18.519,25.414,20.063z M27.373,16.122l-5.251,5.419c-0.021-0.052-0.039-0.117-0.046-0.201
	c-0.03-0.361,0.13-1.194,1.546-2.721C25.175,16.944,26.483,16.38,27.373,16.122z M20.738,30.335c0-3.03,0.855-4.818,1.528-5.757
	c0.535,0.484,1.72,1.15,4.192,1.15c2.334,0,4.453-0.807,5.592-1.241c0.283-0.108,0.507-0.193,0.628-0.224l1.192-0.307l-1.192-0.307
	c-0.124-0.032-0.361-0.128-0.662-0.25c-1.133-0.458-3.241-1.311-5.55-1.311c-2.59,0-4.438,1.561-4.516,1.627l-0.181,0.155l0,0
	c-0.007,0.007-0.98,0.864-1.648,2.715c-0.671-1.859-1.649-2.716-1.649-2.716l-0.181-0.155c-0.077-0.067-1.926-1.627-4.516-1.627
	c-2.309,0-4.417,0.853-5.55,1.311c-0.301,0.122-0.539,0.218-0.663,0.25l-1.192,0.307l1.192,0.307
	c0.121,0.031,0.344,0.116,0.628,0.224c1.139,0.434,3.258,1.241,5.592,1.241c2.473,0,3.657-0.666,4.192-1.15
	c0.673,0.939,1.528,2.727,1.528,5.758H4.389c0.235,0.361,0.478,0.715,0.736,1.057h14.041c-0.543,0.601-1.677,1.375-3.922,1.375
	c-2.24,0-2.979-0.15-3.63-0.282c-0.535-0.109-1.041-0.211-2.174-0.211c-0.958,0-1.945,0.249-2.943,0.736
	c0.259,0.274,0.525,0.54,0.8,0.797c0.735-0.314,1.453-0.476,2.143-0.476c0.745,0,1.178,0.047,1.552,0.111
	c-0.422,0.465-0.862,1.197-1.19,2.343c0.307,0.202,0.62,0.395,0.939,0.579c0.536-2.134,1.446-2.591,1.67-2.672
	c0.603,0.075,1.446,0.132,2.833,0.132c2.064,0,3.366-0.588,4.171-1.225c-0.161,0.361-0.468,0.82-1.058,1.245
	c-0.522,0.377-1.107,0.648-1.672,0.91c-0.664,0.308-1.291,0.599-1.81,1.043c-0.614,0.525-1.066,1.035-1.406,1.864
	c0.33,0.125,0.662,0.243,1,0.35c0.262-0.612,0.599-0.988,1.093-1.41c0.409-0.35,0.972-0.611,1.568-0.888
	c0.406-0.189,0.822-0.382,1.233-0.619c0.046,0.242,0.083,0.558,0.083,0.95c0,0.682-0.281,1.674-0.746,2.674
	c0.366,0.047,0.735,0.084,1.107,0.11c0.326-0.761,0.697-1.834,0.697-2.784c0-0.73-0.109-1.26-0.208-1.595
	c0.364-0.312,0.631-0.635,0.825-0.942c0.195,0.307,0.461,0.63,0.825,0.942c-0.1,0.335-0.208,0.865-0.208,1.595
	c0,0.95,0.371,2.023,0.696,2.784c0.372-0.026,0.741-0.063,1.107-0.11c-0.465-1-0.746-1.992-0.746-2.674
	c0-0.392,0.038-0.707,0.083-0.95c0.411,0.236,0.826,0.43,1.233,0.619c0.596,0.276,1.159,0.538,1.568,0.888
	c0.492,0.421,0.829,0.797,1.091,1.411c0.338-0.107,0.671-0.225,1-0.35c-0.341-0.831-0.791-1.34-1.404-1.865
	c-0.52-0.445-1.147-0.735-1.81-1.043c-0.565-0.262-1.15-0.533-1.672-0.91c-0.591-0.426-0.898-0.885-1.059-1.246
	c0.805,0.637,2.107,1.225,4.172,1.225c1.387,0,2.23-0.056,2.833-0.132c0.225,0.081,1.134,0.539,1.67,2.672
	c0.319-0.184,0.633-0.377,0.939-0.579c-0.328-1.146-0.769-1.878-1.191-2.343c0.374-0.065,0.807-0.111,1.553-0.111
	c0.689,0,1.406,0.162,2.142,0.477c0.275-0.258,0.541-0.523,0.8-0.797c-0.999-0.488-1.986-0.738-2.942-0.738
	c-1.133,0-1.639,0.103-2.174,0.211c-0.652,0.132-1.39,0.282-3.63,0.282c-2.245,0-3.379-0.772-3.923-1.375h14.042
	c0.258-0.343,0.502-0.697,0.736-1.057H20.738z M26.465,22.721c1.792,0,3.48,0.553,4.633,0.996h-8.041
	C23.776,23.286,24.998,22.721,26.465,22.721z M31.017,24.193c-1.157,0.412-2.805,0.9-4.56,0.9c-2.155,0-3.196-0.526-3.666-0.9
	H31.017z M13.776,22.721c1.461,0,2.684,0.565,3.405,0.996H9.143C10.296,23.274,11.984,22.721,13.776,22.721z M13.783,25.093
	c-1.755,0-3.402-0.489-4.56-0.9h8.225C16.977,24.569,15.935,25.093,13.783,25.093z M23.238,16.84
	c0.047,0.026,0.099,0.038,0.151,0.038c0.044,0,0.089-0.009,0.13-0.028c0.062-0.028,1.531-0.701,2.348-2.206
	c0.733-1.35,0.931-2.824,1.038-3.616c0.025-0.184,0.046-0.344,0.064-0.416c0.035-0.14-0.029-0.287-0.156-0.356
	c-0.127-0.069-0.285-0.043-0.384,0.063c-0.051,0.055-0.173,0.159-0.314,0.28c-0.606,0.52-1.735,1.489-2.468,2.839
	c-0.817,1.505-0.582,3.103-0.572,3.171C23.09,16.707,23.151,16.793,23.238,16.84z M25.309,14.342
	c-0.331,0.609-0.792,1.064-1.195,1.381l1.975-3.637C25.949,12.775,25.72,13.585,25.309,14.342z M24.205,13.742
	c0.411-0.757,0.965-1.39,1.467-1.883l-1.975,3.637C23.743,14.986,23.874,14.351,24.205,13.742z M20.12,21.975l0.252-0.331
	c0.095-0.124,2.321-3.091,2.321-7.031c0-3.584-1.244-6.85-1.912-8.604c-0.169-0.445-0.303-0.796-0.354-0.992L20.12,3.825
	l-0.307,1.192c-0.051,0.196-0.184,0.547-0.354,0.992c-0.668,1.754-1.912,5.02-1.912,8.605c0,3.939,2.226,6.906,2.321,7.031
	L20.12,21.975z M20.438,6.896c0.672,1.806,1.622,4.655,1.622,7.718c0,2.491-0.972,4.61-1.622,5.749V6.896z M19.803,20.363
	c-0.649-1.139-1.621-3.258-1.621-5.749c0-3.063,0.949-5.912,1.621-7.718V20.363z M11.759,15.943
	c0.147,0.789,0.452,2.432,2.622,4.572c1.307,1.288,2.403,1.941,3.258,1.941h0c0.44,0,0.679-0.176,0.763-0.253
	c0.093-0.072,0.334-0.301,0.389-0.752c0.103-0.833-0.471-1.931-1.707-3.263c-2.066-2.228-3.811-2.636-4.649-2.832
	c-0.136-0.032-0.253-0.059-0.331-0.085c-0.112-0.038-0.237-0.009-0.322,0.073c-0.085,0.083-0.117,0.206-0.082,0.32
	C11.718,15.724,11.737,15.825,11.759,15.943z M16.619,18.619c1.416,1.527,1.576,2.36,1.546,2.721
	c-0.007,0.084-0.025,0.149-0.046,0.201l-5.251-5.419C13.757,16.38,15.066,16.944,16.619,18.619z M17.725,21.817
	c-0.026,0.003-0.055,0.004-0.086,0.004h0c-0.384,0-1.26-0.228-2.812-1.758c-1.566-1.544-2.089-2.794-2.309-3.619L17.725,21.817z
	 M13.336,11.028c0.106,0.792,0.304,2.266,1.038,3.616c0.817,1.505,2.286,2.178,2.348,2.206c0.041,0.019,0.086,0.028,0.13,0.028
	c0.052,0,0.104-0.013,0.151-0.038c0.087-0.047,0.147-0.132,0.162-0.23c0.01-0.067,0.246-1.665-0.572-3.171
	c-0.733-1.35-1.862-2.319-2.468-2.839c-0.141-0.121-0.263-0.226-0.314-0.28c-0.099-0.106-0.256-0.132-0.384-0.063
	c-0.127,0.069-0.191,0.215-0.156,0.356C13.29,10.685,13.311,10.844,13.336,11.028z M16.036,13.742
	c0.331,0.609,0.461,1.244,0.508,1.754l-1.975-3.637C15.071,12.352,15.625,12.985,16.036,13.742z M16.127,15.726
	c-0.402-0.316-0.864-0.772-1.196-1.384c-0.411-0.756-0.64-1.566-0.781-2.256L16.127,15.726z M142.164,4.698v0.308
	c-0.329,0.01-0.578,0.049-0.747,0.116c-0.17,0.067-0.28,0.19-0.331,0.369c-0.051,0.18-0.077,0.46-0.077,0.839v7.638
	c0,0.369,0.028,0.647,0.085,0.831c0.056,0.185,0.167,0.308,0.331,0.37c0.164,0.062,0.411,0.102,0.739,0.123v0.308
	c-0.277-0.02-0.626-0.033-1.047-0.039c-0.421-0.005-0.847-0.008-1.278-0.008c-0.503,0-0.968,0.003-1.394,0.008
	c-0.426,0.005-0.773,0.018-1.04,0.039v-0.308c0.328-0.021,0.575-0.062,0.739-0.123c0.164-0.062,0.275-0.185,0.331-0.37
	c0.056-0.185,0.085-0.462,0.085-0.831V6.331c0-0.38-0.028-0.66-0.085-0.839c-0.056-0.18-0.169-0.303-0.339-0.369
	c-0.169-0.067-0.413-0.105-0.731-0.116V4.698c0.267,0.01,0.614,0.021,1.04,0.031c0.426,0.01,0.89,0.016,1.394,0.016
	c0.431,0,0.857-0.005,1.278-0.016C141.537,4.719,141.886,4.709,142.164,4.698z M148.189,7.424c0.431,0,0.783,0.054,1.055,0.162
	c0.272,0.108,0.485,0.254,0.639,0.439c0.164,0.195,0.285,0.447,0.362,0.755c0.077,0.308,0.115,0.724,0.115,1.247v4.143
	c0,0.431,0.074,0.724,0.223,0.878c0.149,0.154,0.403,0.231,0.762,0.231v0.323c-0.195-0.01-0.488-0.023-0.878-0.039
	c-0.39-0.015-0.775-0.023-1.155-0.023c-0.39,0-0.773,0.008-1.147,0.023c-0.375,0.016-0.66,0.029-0.855,0.039v-0.323
	c0.308,0,0.524-0.077,0.647-0.231c0.123-0.154,0.185-0.447,0.185-0.878V9.38c0-0.257-0.026-0.48-0.077-0.67
	c-0.052-0.19-0.144-0.339-0.277-0.447c-0.133-0.108-0.334-0.162-0.601-0.162c-0.431,0-0.793,0.17-1.086,0.508
	c-0.293,0.339-0.439,0.765-0.439,1.278v4.281c0,0.431,0.064,0.724,0.192,0.878c0.128,0.154,0.341,0.231,0.639,0.231v0.323
	c-0.185-0.01-0.454-0.023-0.809-0.039c-0.354-0.015-0.721-0.023-1.101-0.023c-0.39,0-0.79,0.008-1.201,0.023
	c-0.411,0.016-0.719,0.029-0.924,0.039v-0.323c0.359,0,0.613-0.077,0.762-0.231c0.149-0.154,0.223-0.447,0.223-0.878V9.318
	c0-0.462-0.069-0.803-0.208-1.024c-0.139-0.221-0.398-0.331-0.778-0.331V7.639c0.328,0.031,0.647,0.046,0.955,0.046
	c0.431,0,0.834-0.018,1.209-0.054c0.375-0.036,0.721-0.09,1.04-0.162v1.386c0.257-0.524,0.606-0.893,1.047-1.109
	C147.152,7.532,147.645,7.424,148.189,7.424z M154.075,5.114v2.526h1.817v0.308h-1.817v6.221c0,0.308,0.056,0.526,0.169,0.654
	c0.113,0.129,0.282,0.192,0.508,0.192c0.185,0,0.37-0.069,0.554-0.208c0.185-0.139,0.349-0.377,0.493-0.716l0.262,0.139
	c-0.164,0.462-0.414,0.842-0.747,1.14c-0.334,0.297-0.788,0.446-1.363,0.446c-0.339,0-0.637-0.044-0.893-0.131
	c-0.257-0.087-0.472-0.218-0.647-0.393c-0.226-0.226-0.375-0.506-0.447-0.839c-0.072-0.333-0.108-0.767-0.108-1.301V7.948h-1.294
	V7.639h1.294V5.607c0.431,0,0.829-0.039,1.193-0.116C153.415,5.414,153.756,5.289,154.075,5.114z M159.692,7.424
	c0.903,0,1.612,0.267,2.125,0.801c0.513,0.534,0.77,1.407,0.77,2.618h-5.066l-0.031-0.293h3.157c0.01-0.503-0.021-0.967-0.093-1.393
	c-0.072-0.426-0.185-0.767-0.339-1.024c-0.154-0.257-0.36-0.385-0.616-0.385c-0.36,0-0.665,0.226-0.916,0.677
	c-0.252,0.452-0.403,1.201-0.454,2.248l0.046,0.092c-0.01,0.123-0.018,0.252-0.023,0.385c-0.005,0.134-0.008,0.272-0.008,0.416
	c0,0.708,0.1,1.283,0.3,1.725c0.2,0.442,0.454,0.762,0.762,0.962c0.308,0.2,0.621,0.3,0.939,0.3c0.308,0,0.644-0.077,1.009-0.231
	c0.364-0.154,0.706-0.488,1.024-1.001l0.277,0.092c-0.123,0.391-0.318,0.77-0.585,1.14c-0.267,0.37-0.606,0.672-1.017,0.908
	c-0.411,0.236-0.903,0.354-1.478,0.354c-0.698,0-1.314-0.149-1.848-0.446c-0.534-0.298-0.952-0.75-1.255-1.355
	c-0.303-0.606-0.454-1.376-0.454-2.31c0-0.955,0.162-1.75,0.485-2.387c0.323-0.636,0.77-1.111,1.34-1.424
	C158.314,7.581,158.964,7.424,159.692,7.424z M167.751,7.424c0.328,0,0.595,0.069,0.801,0.208c0.205,0.139,0.356,0.316,0.454,0.531
	c0.098,0.216,0.146,0.442,0.146,0.678c0,0.38-0.11,0.691-0.331,0.932c-0.221,0.241-0.511,0.362-0.87,0.362s-0.639-0.09-0.839-0.27
	c-0.2-0.18-0.3-0.418-0.3-0.716c0-0.287,0.064-0.526,0.192-0.716c0.128-0.19,0.29-0.352,0.485-0.485
	c-0.144-0.041-0.287-0.036-0.431,0.015c-0.267,0.041-0.506,0.167-0.716,0.377c-0.211,0.211-0.377,0.46-0.5,0.747
	c-0.123,0.287-0.185,0.57-0.185,0.847v4.081c0,0.493,0.121,0.827,0.362,1.001c0.241,0.175,0.603,0.262,1.086,0.262v0.323
	c-0.236-0.01-0.58-0.023-1.032-0.039c-0.452-0.015-0.924-0.023-1.417-0.023c-0.411,0-0.826,0.008-1.247,0.023
	c-0.421,0.016-0.739,0.029-0.955,0.039v-0.323c0.359,0,0.613-0.077,0.762-0.231c0.149-0.154,0.223-0.447,0.223-0.878V9.318
	c0-0.462-0.069-0.803-0.208-1.024c-0.139-0.221-0.398-0.331-0.778-0.331V7.639c0.328,0.031,0.647,0.046,0.955,0.046
	c0.431,0,0.834-0.018,1.209-0.054c0.375-0.036,0.721-0.09,1.04-0.162v1.432c0.123-0.277,0.287-0.529,0.493-0.755
	c0.205-0.226,0.441-0.403,0.708-0.531C167.125,7.488,167.422,7.424,167.751,7.424z M172.577,7.424c0.452,0,0.849,0.074,1.193,0.223
	c0.344,0.149,0.613,0.398,0.809,0.747l-0.185,0.169c-0.133-0.246-0.311-0.423-0.531-0.531c-0.221-0.108-0.454-0.162-0.701-0.162
	c-0.524,0-0.939,0.305-1.247,0.916c-0.308,0.611-0.457,1.553-0.446,2.826c0,0.873,0.059,1.568,0.177,2.087
	c0.118,0.519,0.287,0.891,0.508,1.116c0.22,0.226,0.475,0.339,0.762,0.339c0.349,0,0.662-0.139,0.939-0.416
	c0.277-0.277,0.426-0.652,0.446-1.124l0.077,0.539c-0.154,0.544-0.403,0.957-0.747,1.24c-0.344,0.282-0.793,0.423-1.348,0.423
	c-0.606,0-1.147-0.149-1.625-0.446c-0.477-0.298-0.849-0.757-1.116-1.378c-0.267-0.621-0.4-1.424-0.4-2.41
	c0-0.934,0.148-1.707,0.446-2.318c0.297-0.61,0.706-1.07,1.224-1.378S171.92,7.424,172.577,7.424z M176.504,3.543v10.364
	c0,0.462,0.071,0.803,0.215,1.024c0.144,0.221,0.4,0.331,0.77,0.331v0.324c-0.318-0.031-0.637-0.046-0.955-0.046
	c-0.431,0-0.834,0.016-1.209,0.046c-0.375,0.031-0.721,0.087-1.04,0.169V5.391c0-0.462-0.069-0.803-0.208-1.024
	c-0.139-0.221-0.398-0.331-0.778-0.331V3.713c0.328,0.031,0.647,0.047,0.955,0.047c0.421,0,0.821-0.018,1.201-0.054
	C175.836,3.669,176.186,3.615,176.504,3.543z M180.848,7.47v6.699c0,0.431,0.074,0.724,0.223,0.878
	c0.149,0.154,0.403,0.231,0.762,0.231v0.323c-0.185-0.01-0.472-0.023-0.862-0.039c-0.39-0.015-0.785-0.023-1.186-0.023
	c-0.4,0-0.806,0.008-1.216,0.023c-0.411,0.016-0.719,0.029-0.924,0.039v-0.323c0.359,0,0.613-0.077,0.762-0.231
	c0.149-0.154,0.223-0.447,0.223-0.878V9.318c0-0.462-0.069-0.803-0.208-1.024c-0.139-0.221-0.398-0.331-0.778-0.331V7.639
	c0.328,0.031,0.647,0.046,0.955,0.046c0.431,0,0.834-0.018,1.209-0.054C180.183,7.596,180.53,7.542,180.848,7.47z M179.647,3.667
	c0.431,0,0.773,0.105,1.024,0.316c0.252,0.211,0.377,0.5,0.377,0.87c0,0.37-0.126,0.66-0.377,0.87
	c-0.251,0.211-0.593,0.316-1.024,0.316c-0.431,0-0.773-0.105-1.024-0.316c-0.251-0.21-0.377-0.5-0.377-0.87
	c0-0.369,0.126-0.659,0.377-0.87C178.874,3.772,179.216,3.667,179.647,3.667z M184.853,7.424c0.431,0,0.808,0.054,1.132,0.162
	c0.323,0.108,0.557,0.213,0.701,0.316c0.349,0.236,0.564,0.082,0.647-0.462h0.323c-0.021,0.288-0.036,0.639-0.046,1.055
	c-0.01,0.416-0.015,0.968-0.015,1.655h-0.324c-0.051-0.38-0.149-0.755-0.292-1.124c-0.144-0.369-0.352-0.672-0.624-0.908
	c-0.272-0.236-0.624-0.354-1.055-0.354c-0.298,0-0.549,0.085-0.755,0.254c-0.206,0.169-0.308,0.414-0.308,0.731
	c0,0.308,0.093,0.577,0.277,0.809c0.185,0.231,0.423,0.452,0.716,0.662c0.293,0.211,0.598,0.434,0.916,0.67
	c0.513,0.38,0.947,0.762,1.301,1.147c0.354,0.385,0.532,0.885,0.532,1.501c0,0.462-0.134,0.865-0.4,1.209
	c-0.267,0.344-0.619,0.608-1.055,0.793c-0.437,0.185-0.922,0.277-1.455,0.277c-0.308,0-0.583-0.031-0.824-0.092
	c-0.241-0.062-0.449-0.139-0.624-0.231c-0.133-0.062-0.259-0.121-0.377-0.177c-0.118-0.056-0.229-0.105-0.331-0.146
	c-0.103-0.031-0.192,0.005-0.27,0.108c-0.077,0.103-0.136,0.246-0.177,0.431h-0.324c0.02-0.328,0.036-0.729,0.046-1.201
	c0.01-0.472,0.016-1.099,0.016-1.879h0.323c0.062,0.555,0.174,1.045,0.339,1.47c0.164,0.426,0.387,0.76,0.67,1.001
	c0.282,0.242,0.639,0.362,1.07,0.362c0.267,0,0.513-0.085,0.739-0.254c0.226-0.17,0.339-0.449,0.339-0.839
	c0-0.452-0.146-0.826-0.439-1.124c-0.292-0.298-0.665-0.621-1.116-0.97c-0.329-0.267-0.639-0.531-0.932-0.793
	c-0.293-0.262-0.531-0.549-0.716-0.862c-0.185-0.313-0.277-0.67-0.277-1.07c0-0.462,0.123-0.852,0.369-1.17
	c0.246-0.318,0.572-0.557,0.978-0.716C183.957,7.504,184.391,7.424,184.853,7.424z M192.104,7.424c0.4,0,0.767,0.044,1.101,0.131
	c0.333,0.087,0.608,0.198,0.824,0.331c0.267,0.164,0.475,0.367,0.624,0.608c0.149,0.241,0.223,0.521,0.223,0.839
	c0,0.359-0.113,0.654-0.339,0.885c-0.226,0.231-0.518,0.346-0.878,0.346c-0.36,0-0.647-0.102-0.862-0.308
	c-0.215-0.205-0.324-0.483-0.324-0.832c0-0.328,0.103-0.603,0.308-0.824c0.205-0.22,0.441-0.367,0.708-0.439
	c-0.082-0.102-0.205-0.19-0.37-0.262c-0.164-0.071-0.349-0.108-0.554-0.108c-0.318,0-0.598,0.092-0.839,0.277
	c-0.241,0.185-0.444,0.441-0.608,0.77c-0.164,0.329-0.29,0.714-0.377,1.155c-0.087,0.441-0.131,0.924-0.131,1.447
	c0,0.79,0.1,1.412,0.3,1.863s0.457,0.77,0.77,0.955c0.313,0.185,0.639,0.277,0.978,0.277c0.287,0,0.616-0.079,0.986-0.239
	c0.369-0.159,0.713-0.495,1.032-1.009l0.262,0.093c-0.113,0.38-0.298,0.76-0.554,1.139c-0.257,0.38-0.59,0.691-1.001,0.932
	c-0.411,0.241-0.914,0.362-1.509,0.362c-0.667,0-1.27-0.146-1.809-0.439c-0.539-0.293-0.97-0.744-1.294-1.355
	c-0.323-0.611-0.485-1.399-0.485-2.364c0-0.924,0.167-1.702,0.5-2.333c0.334-0.631,0.788-1.106,1.363-1.424
	C190.724,7.583,191.375,7.424,192.104,7.424z M198.092,7.47v6.699c0,0.431,0.074,0.724,0.223,0.878
	c0.148,0.154,0.403,0.231,0.762,0.231v0.323c-0.185-0.01-0.472-0.023-0.862-0.039c-0.391-0.015-0.785-0.023-1.186-0.023
	c-0.4,0-0.806,0.008-1.217,0.023c-0.411,0.016-0.719,0.029-0.924,0.039v-0.323c0.359,0,0.613-0.077,0.762-0.231
	c0.148-0.154,0.223-0.447,0.223-0.878V9.318c0-0.462-0.069-0.803-0.208-1.024c-0.139-0.221-0.398-0.331-0.778-0.331V7.639
	c0.329,0.031,0.647,0.046,0.955,0.046c0.431,0,0.834-0.018,1.209-0.054C197.427,7.596,197.773,7.542,198.092,7.47z M196.89,3.667
	c0.431,0,0.772,0.105,1.024,0.316c0.251,0.211,0.377,0.5,0.377,0.87c0,0.37-0.126,0.66-0.377,0.87
	c-0.252,0.211-0.593,0.316-1.024,0.316c-0.431,0-0.773-0.105-1.024-0.316c-0.252-0.21-0.377-0.5-0.377-0.87
	c0-0.369,0.125-0.659,0.377-0.87C196.118,3.772,196.459,3.667,196.89,3.667z M201.879,7.47v9.393c0,0.483,0.123,0.803,0.37,0.962
	s0.585,0.239,1.016,0.239v0.323c-0.267-0.01-0.634-0.023-1.101-0.039c-0.467-0.015-0.962-0.023-1.486-0.023
	c-0.38,0-0.752,0.008-1.116,0.023c-0.364,0.016-0.639,0.028-0.824,0.039v-0.323c0.339,0,0.577-0.072,0.716-0.215
	c0.139-0.144,0.208-0.421,0.208-0.832v-7.7c0-0.462-0.072-0.803-0.215-1.024c-0.144-0.221-0.4-0.331-0.77-0.331V7.639
	c0.328,0.031,0.647,0.046,0.955,0.046c0.421,0,0.821-0.018,1.201-0.054C201.212,7.596,201.561,7.542,201.879,7.47z M204.266,7.424
	c0.78,0,1.435,0.318,1.963,0.955c0.529,0.637,0.793,1.596,0.793,2.88c0,0.996-0.149,1.832-0.447,2.51
	c-0.298,0.678-0.711,1.189-1.24,1.532c-0.529,0.344-1.158,0.516-1.886,0.516c-0.4,0-0.765-0.069-1.093-0.208
	c-0.329-0.139-0.58-0.336-0.755-0.593l0.154-0.2c0.102,0.185,0.249,0.329,0.439,0.431c0.19,0.103,0.408,0.154,0.654,0.154
	c0.462,0,0.826-0.156,1.093-0.469c0.267-0.313,0.459-0.755,0.578-1.324c0.118-0.57,0.177-1.25,0.177-2.041
	c0-0.883-0.057-1.576-0.17-2.079c-0.113-0.503-0.267-0.862-0.462-1.078c-0.195-0.215-0.431-0.323-0.708-0.323
	c-0.37,0-0.706,0.144-1.009,0.431c-0.303,0.288-0.475,0.698-0.516,1.232l-0.077-0.539c0.185-0.585,0.5-1.029,0.947-1.332
	C203.15,7.576,203.671,7.424,204.266,7.424z M210.092,3.543v10.626c0,0.431,0.074,0.724,0.223,0.878
	c0.149,0.154,0.403,0.231,0.762,0.231v0.323c-0.195-0.01-0.488-0.023-0.878-0.039c-0.39-0.015-0.786-0.023-1.186-0.023
	c-0.4,0-0.803,0.008-1.209,0.023c-0.406,0.016-0.711,0.029-0.916,0.039v-0.323c0.36,0,0.614-0.077,0.762-0.231
	c0.149-0.154,0.223-0.447,0.223-0.878V5.391c0-0.462-0.069-0.803-0.208-1.024c-0.139-0.221-0.398-0.331-0.778-0.331V3.713
	c0.328,0.031,0.647,0.047,0.955,0.047c0.421,0,0.821-0.018,1.201-0.054C209.424,3.669,209.774,3.615,210.092,3.543z M214.444,7.47
	v6.699c0,0.431,0.074,0.724,0.223,0.878c0.148,0.154,0.403,0.231,0.762,0.231v0.323c-0.185-0.01-0.472-0.023-0.862-0.039
	c-0.39-0.015-0.785-0.023-1.186-0.023c-0.4,0-0.806,0.008-1.217,0.023c-0.411,0.016-0.719,0.029-0.924,0.039v-0.323
	c0.359,0,0.613-0.077,0.762-0.231c0.149-0.154,0.223-0.447,0.223-0.878V9.318c0-0.462-0.069-0.803-0.208-1.024
	c-0.139-0.221-0.398-0.331-0.778-0.331V7.639c0.328,0.031,0.647,0.046,0.955,0.046c0.431,0,0.834-0.018,1.209-0.054
	C213.779,7.596,214.125,7.542,214.444,7.47z M213.242,3.667c0.431,0,0.773,0.105,1.024,0.316s0.377,0.5,0.377,0.87
	c0,0.37-0.126,0.66-0.377,0.87c-0.251,0.211-0.593,0.316-1.024,0.316c-0.431,0-0.773-0.105-1.024-0.316
	c-0.252-0.21-0.377-0.5-0.377-0.87c0-0.369,0.126-0.659,0.377-0.87C212.47,3.772,212.811,3.667,213.242,3.667z M221.311,7.424
	c0.431,0,0.783,0.054,1.055,0.162c0.272,0.108,0.485,0.254,0.639,0.439c0.164,0.195,0.285,0.447,0.362,0.755
	c0.077,0.308,0.116,0.724,0.116,1.247v4.143c0,0.431,0.074,0.724,0.223,0.878c0.149,0.154,0.403,0.231,0.762,0.231v0.323
	c-0.195-0.01-0.488-0.023-0.878-0.039c-0.39-0.015-0.775-0.023-1.155-0.023c-0.39,0-0.773,0.008-1.147,0.023
	c-0.375,0.016-0.66,0.029-0.855,0.039v-0.323c0.308,0,0.524-0.077,0.647-0.231c0.123-0.154,0.185-0.447,0.185-0.878V9.38
	c0-0.257-0.026-0.48-0.077-0.67c-0.051-0.19-0.144-0.339-0.277-0.447c-0.133-0.108-0.334-0.162-0.601-0.162
	c-0.431,0-0.793,0.17-1.086,0.508c-0.293,0.339-0.439,0.765-0.439,1.278v4.281c0,0.431,0.064,0.724,0.193,0.878
	c0.128,0.154,0.341,0.231,0.639,0.231v0.323c-0.185-0.01-0.454-0.023-0.808-0.039c-0.354-0.015-0.721-0.023-1.101-0.023
	c-0.39,0-0.791,0.008-1.201,0.023c-0.411,0.016-0.719,0.029-0.924,0.039v-0.323c0.359,0,0.613-0.077,0.762-0.231
	c0.149-0.154,0.223-0.447,0.223-0.878V9.318c0-0.462-0.069-0.803-0.208-1.024c-0.138-0.221-0.398-0.331-0.778-0.331V7.639
	c0.328,0.031,0.647,0.046,0.955,0.046c0.431,0,0.834-0.018,1.209-0.054c0.375-0.036,0.721-0.09,1.039-0.162v1.386
	c0.257-0.524,0.606-0.893,1.047-1.109C220.274,7.532,220.767,7.424,221.311,7.424z M226.404,15.709c-0.688,0-1.186-0.18-1.494-0.539
	c-0.308-0.36-0.462-0.796-0.462-1.309c0-0.441,0.1-0.801,0.3-1.078c0.2-0.277,0.459-0.506,0.778-0.685
	c0.318-0.18,0.654-0.328,1.009-0.447c0.354-0.118,0.693-0.236,1.016-0.354c0.323-0.118,0.585-0.254,0.785-0.408
	c0.2-0.154,0.3-0.349,0.3-0.585V9.102c0-0.267-0.044-0.505-0.131-0.716c-0.087-0.21-0.221-0.372-0.4-0.485
	c-0.18-0.113-0.413-0.169-0.701-0.169c-0.205,0-0.411,0.028-0.616,0.085c-0.205,0.056-0.375,0.152-0.508,0.285
	c0.287,0.103,0.511,0.259,0.67,0.47c0.159,0.211,0.239,0.449,0.239,0.716c0,0.349-0.121,0.626-0.362,0.832
	c-0.241,0.205-0.526,0.308-0.855,0.308c-0.37,0-0.649-0.115-0.839-0.346c-0.19-0.231-0.285-0.511-0.285-0.839
	c0-0.297,0.074-0.544,0.223-0.739c0.149-0.195,0.356-0.38,0.624-0.554c0.287-0.164,0.634-0.293,1.04-0.385
	c0.405-0.092,0.844-0.138,1.317-0.138c0.472,0,0.898,0.049,1.278,0.146c0.38,0.098,0.698,0.275,0.955,0.531
	c0.236,0.236,0.39,0.526,0.462,0.87c0.072,0.344,0.108,0.778,0.108,1.301v4.189c0,0.246,0.025,0.421,0.077,0.524
	c0.051,0.103,0.139,0.154,0.262,0.154c0.103,0,0.2-0.025,0.293-0.077c0.093-0.051,0.18-0.113,0.262-0.185l0.154,0.262
	c-0.216,0.185-0.465,0.326-0.747,0.423c-0.282,0.098-0.598,0.147-0.947,0.147c-0.616,0-1.024-0.126-1.224-0.377
	s-0.306-0.541-0.316-0.87c-0.257,0.421-0.572,0.734-0.947,0.939C227.346,15.606,226.907,15.709,226.404,15.709z M227.59,14.723
	c0.195,0,0.377-0.046,0.547-0.139c0.169-0.092,0.336-0.256,0.5-0.493v-3.157c-0.123,0.206-0.295,0.377-0.516,0.516
	c-0.221,0.139-0.447,0.288-0.678,0.447c-0.231,0.159-0.423,0.362-0.577,0.608c-0.154,0.246-0.231,0.575-0.231,0.985
	c0,0.442,0.092,0.757,0.277,0.947C227.097,14.629,227.323,14.723,227.59,14.723z M237.254,7.424c0.328,0,0.595,0.069,0.801,0.208
	c0.205,0.139,0.357,0.316,0.454,0.531c0.098,0.216,0.146,0.442,0.146,0.678c0,0.38-0.11,0.691-0.331,0.932
	c-0.221,0.241-0.511,0.362-0.87,0.362c-0.36,0-0.639-0.09-0.839-0.27c-0.2-0.18-0.3-0.418-0.3-0.716
	c0-0.287,0.064-0.526,0.192-0.716c0.128-0.19,0.29-0.352,0.485-0.485c-0.144-0.041-0.288-0.036-0.431,0.015
	c-0.267,0.041-0.506,0.167-0.716,0.377c-0.211,0.211-0.377,0.46-0.5,0.747c-0.123,0.287-0.185,0.57-0.185,0.847v4.081
	c0,0.493,0.121,0.827,0.362,1.001c0.241,0.175,0.603,0.262,1.086,0.262v0.323c-0.236-0.01-0.58-0.023-1.032-0.039
	c-0.452-0.015-0.924-0.023-1.417-0.023c-0.411,0-0.827,0.008-1.247,0.023c-0.421,0.016-0.739,0.029-0.955,0.039v-0.323
	c0.359,0,0.613-0.077,0.762-0.231c0.149-0.154,0.223-0.447,0.223-0.878V9.318c0-0.462-0.069-0.803-0.208-1.024
	c-0.138-0.221-0.398-0.331-0.778-0.331V7.639c0.328,0.031,0.647,0.046,0.955,0.046c0.431,0,0.834-0.018,1.209-0.054
	c0.375-0.036,0.721-0.09,1.039-0.162v1.432c0.123-0.277,0.287-0.529,0.493-0.755c0.205-0.226,0.441-0.403,0.708-0.531
	C236.628,7.488,236.926,7.424,237.254,7.424z M241.869,7.47v6.699c0,0.431,0.074,0.724,0.223,0.878
	c0.148,0.154,0.403,0.231,0.762,0.231v0.323c-0.185-0.01-0.472-0.023-0.862-0.039c-0.39-0.015-0.786-0.023-1.186-0.023
	c-0.4,0-0.806,0.008-1.216,0.023c-0.411,0.016-0.719,0.029-0.924,0.039v-0.323c0.359,0,0.613-0.077,0.762-0.231
	c0.149-0.154,0.223-0.447,0.223-0.878V9.318c0-0.462-0.069-0.803-0.208-1.024c-0.138-0.221-0.398-0.331-0.778-0.331V7.639
	c0.328,0.031,0.647,0.046,0.955,0.046c0.431,0,0.834-0.018,1.209-0.054C241.204,7.596,241.551,7.542,241.869,7.47z M240.668,3.667
	c0.431,0,0.772,0.105,1.024,0.316c0.251,0.211,0.377,0.5,0.377,0.87c0,0.37-0.126,0.66-0.377,0.87
	c-0.252,0.211-0.593,0.316-1.024,0.316s-0.773-0.105-1.024-0.316c-0.252-0.21-0.377-0.5-0.377-0.87c0-0.369,0.125-0.659,0.377-0.87
	C239.895,3.772,240.237,3.667,240.668,3.667z M244.832,15.709c-0.688,0-1.186-0.18-1.494-0.539c-0.308-0.36-0.462-0.796-0.462-1.309
	c0-0.441,0.1-0.801,0.3-1.078c0.2-0.277,0.459-0.506,0.778-0.685c0.318-0.18,0.654-0.328,1.009-0.447
	c0.354-0.118,0.693-0.236,1.016-0.354c0.323-0.118,0.585-0.254,0.785-0.408c0.2-0.154,0.3-0.349,0.3-0.585V9.102
	c0-0.267-0.044-0.505-0.131-0.716c-0.087-0.21-0.221-0.372-0.4-0.485c-0.18-0.113-0.413-0.169-0.701-0.169
	c-0.205,0-0.411,0.028-0.616,0.085c-0.205,0.056-0.375,0.152-0.508,0.285c0.287,0.103,0.511,0.259,0.67,0.47
	c0.159,0.211,0.239,0.449,0.239,0.716c0,0.349-0.121,0.626-0.362,0.832c-0.241,0.205-0.526,0.308-0.855,0.308
	c-0.37,0-0.649-0.115-0.839-0.346c-0.19-0.231-0.285-0.511-0.285-0.839c0-0.297,0.074-0.544,0.223-0.739
	c0.149-0.195,0.356-0.38,0.624-0.554c0.287-0.164,0.634-0.293,1.04-0.385c0.405-0.092,0.844-0.138,1.317-0.138
	c0.472,0,0.898,0.049,1.278,0.146c0.38,0.098,0.698,0.275,0.955,0.531c0.236,0.236,0.39,0.526,0.462,0.87
	c0.072,0.344,0.108,0.778,0.108,1.301v4.189c0,0.246,0.025,0.421,0.077,0.524c0.051,0.103,0.139,0.154,0.262,0.154
	c0.103,0,0.2-0.025,0.293-0.077c0.093-0.051,0.18-0.113,0.262-0.185l0.154,0.262c-0.216,0.185-0.465,0.326-0.747,0.423
	c-0.282,0.098-0.598,0.147-0.947,0.147c-0.616,0-1.024-0.126-1.224-0.377c-0.2-0.251-0.306-0.541-0.316-0.87
	c-0.257,0.421-0.572,0.734-0.947,0.939C245.774,15.606,245.335,15.709,244.832,15.709z M246.018,14.723
	c0.195,0,0.377-0.046,0.547-0.139c0.169-0.092,0.336-0.256,0.5-0.493v-3.157c-0.123,0.206-0.295,0.377-0.516,0.516
	c-0.221,0.139-0.447,0.288-0.678,0.447c-0.231,0.159-0.423,0.362-0.577,0.608c-0.154,0.246-0.231,0.575-0.231,0.985
	c0,0.442,0.092,0.757,0.277,0.947C245.525,14.629,245.751,14.723,246.018,14.723z M50.739,4.482c0.678,0,1.234,0.1,1.671,0.3
	c0.436,0.2,0.824,0.434,1.163,0.701c0.205,0.154,0.362,0.172,0.47,0.054c0.108-0.118,0.182-0.398,0.223-0.839h0.354
	c-0.021,0.4-0.036,0.886-0.046,1.455c-0.01,0.57-0.016,1.327-0.016,2.271h-0.354c-0.051-0.472-0.118-0.875-0.2-1.209
	c-0.082-0.333-0.195-0.629-0.339-0.885c-0.144-0.257-0.349-0.488-0.616-0.693c-0.257-0.257-0.554-0.447-0.893-0.57
	c-0.339-0.123-0.693-0.185-1.063-0.185c-0.554,0-1.027,0.146-1.417,0.439c-0.39,0.293-0.706,0.691-0.947,1.194
	c-0.241,0.503-0.418,1.07-0.531,1.701c-0.113,0.631-0.169,1.286-0.169,1.963c0,0.688,0.059,1.347,0.177,1.979
	c0.118,0.631,0.303,1.193,0.554,1.686c0.251,0.493,0.577,0.883,0.978,1.17c0.4,0.288,0.872,0.431,1.417,0.431
	c0.339,0,0.68-0.064,1.024-0.192c0.344-0.128,0.639-0.316,0.885-0.562c0.4-0.308,0.672-0.69,0.816-1.147
	c0.144-0.457,0.251-1.065,0.323-1.825h0.354c0,0.975,0.005,1.763,0.016,2.364c0.01,0.601,0.025,1.106,0.046,1.517h-0.354
	c-0.041-0.441-0.11-0.719-0.208-0.832c-0.098-0.113-0.259-0.098-0.485,0.046c-0.38,0.267-0.783,0.5-1.209,0.701
	c-0.426,0.2-0.973,0.3-1.64,0.3c-1.088,0-2.04-0.221-2.857-0.662c-0.816-0.441-1.45-1.078-1.902-1.909
	c-0.452-0.832-0.678-1.833-0.678-3.003c0-1.149,0.233-2.156,0.701-3.018c0.467-0.862,1.109-1.535,1.925-2.017
	C48.729,4.723,49.671,4.482,50.739,4.482z M57.12,15.708c-0.688,0-1.186-0.18-1.494-0.539c-0.308-0.359-0.462-0.796-0.462-1.309
	c0-0.441,0.1-0.801,0.3-1.078c0.2-0.277,0.459-0.506,0.778-0.685c0.318-0.18,0.655-0.328,1.009-0.446
	c0.354-0.118,0.693-0.236,1.016-0.354c0.323-0.118,0.585-0.254,0.785-0.408c0.2-0.154,0.3-0.349,0.3-0.585V9.102
	c0-0.267-0.044-0.506-0.131-0.716c-0.087-0.21-0.221-0.372-0.4-0.485c-0.18-0.113-0.413-0.169-0.701-0.169
	c-0.205,0-0.411,0.028-0.616,0.085C57.3,7.872,57.13,7.967,56.997,8.101c0.287,0.103,0.511,0.259,0.67,0.47
	c0.159,0.211,0.239,0.449,0.239,0.716c0,0.349-0.121,0.626-0.362,0.832c-0.241,0.205-0.526,0.308-0.855,0.308
	c-0.37,0-0.649-0.116-0.839-0.347c-0.19-0.231-0.285-0.511-0.285-0.839c0-0.297,0.074-0.544,0.223-0.739
	c0.149-0.195,0.357-0.38,0.624-0.555c0.287-0.164,0.634-0.293,1.039-0.385c0.405-0.092,0.844-0.139,1.317-0.139
	c0.472,0,0.898,0.049,1.278,0.146c0.38,0.098,0.698,0.275,0.955,0.531c0.236,0.236,0.39,0.526,0.462,0.87
	c0.072,0.344,0.108,0.778,0.108,1.301v4.189c0,0.246,0.025,0.421,0.077,0.524c0.051,0.103,0.139,0.154,0.262,0.154
	c0.102,0,0.2-0.026,0.293-0.077c0.092-0.051,0.18-0.113,0.262-0.185l0.154,0.262c-0.216,0.185-0.465,0.326-0.747,0.423
	c-0.282,0.098-0.598,0.146-0.947,0.146c-0.616,0-1.024-0.126-1.224-0.377c-0.2-0.251-0.306-0.541-0.316-0.87
	c-0.257,0.421-0.572,0.734-0.947,0.939C58.062,15.605,57.623,15.708,57.12,15.708z M58.306,14.722c0.195,0,0.377-0.046,0.547-0.139
	c0.169-0.092,0.336-0.256,0.5-0.493v-3.157c-0.123,0.206-0.295,0.377-0.516,0.516c-0.221,0.139-0.447,0.287-0.678,0.446
	c-0.231,0.159-0.424,0.362-0.578,0.608c-0.154,0.246-0.231,0.575-0.231,0.985c0,0.442,0.092,0.757,0.277,0.947
	C57.813,14.628,58.039,14.722,58.306,14.722z M60.4,3.019c0.174,0.133,0.267,0.318,0.277,0.554c0.01,0.236-0.067,0.457-0.231,0.662
	c-0.164,0.206-0.365,0.39-0.601,0.554C59.61,4.954,59.33,5.154,59.007,5.39c-0.323,0.236-0.711,0.565-1.163,0.986l-0.169-0.139
	c0.308-0.554,0.534-1.019,0.678-1.394c0.144-0.375,0.267-0.696,0.37-0.962c0.102-0.267,0.241-0.498,0.416-0.693
	c0.154-0.205,0.357-0.326,0.608-0.362C59.997,2.791,60.215,2.855,60.4,3.019z M65.189,5.113v2.525h1.817v0.308h-1.817v6.221
	c0,0.308,0.056,0.526,0.169,0.654c0.113,0.129,0.282,0.192,0.508,0.192c0.185,0,0.369-0.069,0.554-0.208
	c0.185-0.139,0.349-0.377,0.493-0.716l0.262,0.139c-0.164,0.462-0.413,0.842-0.747,1.14c-0.334,0.297-0.788,0.446-1.363,0.446
	c-0.339,0-0.637-0.044-0.893-0.131c-0.257-0.087-0.472-0.218-0.647-0.393c-0.226-0.226-0.375-0.505-0.447-0.839
	c-0.072-0.333-0.108-0.767-0.108-1.301V7.947h-1.294V7.639h1.294V5.606c0.431,0,0.829-0.039,1.193-0.116
	C64.529,5.414,64.871,5.288,65.189,5.113z M70.807,7.423c0.903,0,1.612,0.267,2.125,0.801c0.513,0.534,0.77,1.407,0.77,2.618h-5.066
	l-0.031-0.293h3.157c0.01-0.503-0.021-0.968-0.092-1.394c-0.072-0.426-0.185-0.767-0.339-1.024c-0.154-0.257-0.36-0.385-0.616-0.385
	c-0.36,0-0.665,0.226-0.916,0.678c-0.252,0.452-0.403,1.201-0.454,2.248l0.046,0.092c-0.01,0.123-0.018,0.252-0.023,0.385
	c-0.005,0.133-0.008,0.272-0.008,0.416c0,0.708,0.1,1.283,0.3,1.725c0.2,0.442,0.454,0.762,0.762,0.962
	c0.308,0.2,0.621,0.3,0.939,0.3c0.308,0,0.644-0.077,1.009-0.231c0.364-0.154,0.706-0.487,1.024-1.001l0.277,0.093
	c-0.123,0.39-0.318,0.77-0.585,1.139c-0.267,0.37-0.606,0.672-1.016,0.909c-0.411,0.236-0.903,0.354-1.478,0.354
	c-0.698,0-1.314-0.149-1.848-0.446c-0.534-0.298-0.952-0.749-1.255-1.355c-0.303-0.606-0.454-1.376-0.454-2.31
	c0-0.955,0.162-1.75,0.485-2.387c0.323-0.636,0.77-1.111,1.34-1.424C69.428,7.58,70.078,7.423,70.807,7.423z M77.502,7.423
	c0.452,0,0.849,0.075,1.193,0.223c0.344,0.149,0.613,0.398,0.808,0.747l-0.185,0.169c-0.133-0.246-0.311-0.423-0.531-0.531
	c-0.221-0.108-0.454-0.162-0.701-0.162c-0.524,0-0.939,0.305-1.247,0.916c-0.308,0.611-0.457,1.553-0.447,2.826
	c0,0.873,0.059,1.568,0.177,2.087c0.118,0.519,0.287,0.891,0.508,1.116c0.221,0.226,0.475,0.339,0.762,0.339
	c0.349,0,0.662-0.139,0.939-0.416c0.277-0.277,0.426-0.652,0.447-1.124l0.077,0.539c-0.154,0.544-0.403,0.958-0.747,1.24
	c-0.344,0.282-0.793,0.423-1.347,0.423c-0.606,0-1.147-0.149-1.625-0.446c-0.477-0.298-0.85-0.757-1.116-1.378
	c-0.267-0.621-0.4-1.424-0.4-2.41c0-0.934,0.149-1.707,0.447-2.318c0.298-0.611,0.706-1.07,1.224-1.378
	C76.257,7.577,76.845,7.423,77.502,7.423z M81.429,3.542v10.364c0,0.462,0.072,0.803,0.216,1.024c0.144,0.221,0.4,0.331,0.77,0.331
	v0.323c-0.318-0.031-0.637-0.046-0.955-0.046c-0.431,0-0.834,0.015-1.209,0.046c-0.375,0.031-0.721,0.087-1.039,0.169V5.39
	c0-0.462-0.069-0.803-0.208-1.024c-0.139-0.221-0.398-0.331-0.778-0.331V3.712c0.328,0.031,0.647,0.046,0.955,0.046
	c0.421,0,0.821-0.018,1.201-0.054C80.761,3.668,81.111,3.614,81.429,3.542z M87.867,7.423c0.328,0,0.595,0.069,0.801,0.208
	c0.205,0.139,0.357,0.316,0.454,0.531c0.097,0.215,0.146,0.442,0.146,0.677c0,0.38-0.11,0.691-0.331,0.932
	c-0.221,0.241-0.511,0.362-0.87,0.362c-0.359,0-0.639-0.09-0.839-0.269c-0.2-0.18-0.3-0.418-0.3-0.716
	c0-0.287,0.064-0.526,0.193-0.716c0.128-0.19,0.29-0.352,0.485-0.485c-0.144-0.041-0.287-0.036-0.431,0.016
	c-0.267,0.041-0.506,0.167-0.716,0.377c-0.211,0.211-0.377,0.459-0.5,0.747c-0.123,0.288-0.185,0.57-0.185,0.847v4.081
	c0,0.493,0.121,0.826,0.362,1.001c0.241,0.175,0.603,0.262,1.086,0.262V15.6c-0.236-0.01-0.58-0.023-1.032-0.039
	c-0.452-0.016-0.924-0.023-1.417-0.023c-0.411,0-0.827,0.008-1.247,0.023c-0.421,0.015-0.739,0.028-0.955,0.039v-0.324
	c0.359,0,0.613-0.077,0.762-0.231c0.149-0.154,0.223-0.446,0.223-0.878V9.317c0-0.462-0.069-0.803-0.208-1.024
	c-0.139-0.221-0.398-0.331-0.778-0.331V7.639c0.328,0.031,0.647,0.046,0.955,0.046c0.431,0,0.834-0.018,1.209-0.054
	c0.375-0.036,0.721-0.09,1.04-0.162v1.432c0.123-0.277,0.287-0.529,0.493-0.755c0.205-0.226,0.441-0.403,0.708-0.531
	C87.241,7.487,87.538,7.423,87.867,7.423z M91.127,15.708c-0.688,0-1.186-0.18-1.494-0.539c-0.308-0.359-0.462-0.796-0.462-1.309
	c0-0.441,0.1-0.801,0.3-1.078c0.2-0.277,0.459-0.506,0.778-0.685c0.318-0.18,0.655-0.328,1.009-0.446
	c0.354-0.118,0.693-0.236,1.016-0.354c0.323-0.118,0.585-0.254,0.785-0.408c0.2-0.154,0.3-0.349,0.3-0.585V9.102
	c0-0.267-0.044-0.506-0.131-0.716c-0.087-0.21-0.221-0.372-0.4-0.485c-0.18-0.113-0.413-0.169-0.701-0.169
	c-0.205,0-0.411,0.028-0.616,0.085c-0.205,0.057-0.375,0.152-0.508,0.285c0.287,0.103,0.511,0.259,0.67,0.47
	c0.159,0.211,0.239,0.449,0.239,0.716c0,0.349-0.121,0.626-0.362,0.832c-0.241,0.205-0.526,0.308-0.855,0.308
	c-0.37,0-0.649-0.116-0.839-0.347c-0.19-0.231-0.285-0.511-0.285-0.839c0-0.297,0.074-0.544,0.223-0.739
	c0.149-0.195,0.357-0.38,0.624-0.555c0.287-0.164,0.634-0.293,1.039-0.385c0.405-0.092,0.844-0.139,1.317-0.139
	c0.472,0,0.898,0.049,1.278,0.146c0.38,0.098,0.698,0.275,0.955,0.531c0.236,0.236,0.39,0.526,0.462,0.87
	c0.072,0.344,0.108,0.778,0.108,1.301v4.189c0,0.246,0.025,0.421,0.077,0.524c0.051,0.103,0.139,0.154,0.262,0.154
	c0.102,0,0.2-0.026,0.293-0.077c0.092-0.051,0.18-0.113,0.262-0.185l0.154,0.262c-0.216,0.185-0.465,0.326-0.747,0.423
	c-0.282,0.098-0.598,0.146-0.947,0.146c-0.616,0-1.024-0.126-1.224-0.377c-0.2-0.251-0.306-0.541-0.316-0.87
	c-0.257,0.421-0.572,0.734-0.947,0.939C92.069,15.605,91.63,15.708,91.127,15.708z M92.313,14.722c0.195,0,0.377-0.046,0.547-0.139
	c0.169-0.092,0.336-0.256,0.5-0.493v-3.157c-0.123,0.206-0.295,0.377-0.516,0.516c-0.221,0.139-0.447,0.287-0.678,0.446
	c-0.231,0.159-0.424,0.362-0.578,0.608c-0.154,0.246-0.231,0.575-0.231,0.985c0,0.442,0.092,0.757,0.277,0.947
	C91.82,14.628,92.046,14.722,92.313,14.722z M104.586,4.697v0.308c-0.349,0.01-0.614,0.049-0.793,0.116
	c-0.18,0.067-0.3,0.19-0.362,0.369c-0.062,0.18-0.092,0.46-0.092,0.839v7.823c0,0.318,0.023,0.555,0.069,0.708
	c0.046,0.154,0.139,0.257,0.277,0.308c0.139,0.051,0.346,0.077,0.624,0.077h0.755c0.472,0,0.901-0.144,1.286-0.431
	c0.385-0.287,0.708-0.69,0.97-1.209c0.262-0.518,0.444-1.117,0.547-1.794h0.354c-0.031,0.349-0.046,0.801-0.046,1.355
	c0,0.236,0.005,0.58,0.015,1.032c0.01,0.452,0.041,0.919,0.093,1.401c-0.524-0.02-1.114-0.033-1.771-0.039
	c-0.657-0.005-1.243-0.008-1.756-0.008c-0.349,0-0.811,0-1.386,0c-0.575,0-1.186,0.003-1.832,0.008
	c-0.647,0.005-1.247,0.018-1.802,0.039v-0.308c0.328-0.02,0.575-0.062,0.739-0.123c0.164-0.062,0.274-0.185,0.331-0.37
	c0.056-0.185,0.085-0.462,0.085-0.832V6.33c0-0.38-0.028-0.66-0.085-0.839c-0.056-0.18-0.169-0.303-0.339-0.369
	c-0.169-0.067-0.413-0.105-0.731-0.116V4.697c0.257,0.01,0.603,0.021,1.04,0.031c0.436,0.01,0.901,0.016,1.393,0.016
	c0.452,0,0.896-0.005,1.332-0.016C103.936,4.718,104.298,4.708,104.586,4.697z M111.703,7.469v6.699
	c0,0.431,0.074,0.724,0.223,0.878c0.149,0.154,0.403,0.231,0.762,0.231V15.6c-0.185-0.01-0.472-0.023-0.862-0.039
	c-0.39-0.016-0.786-0.023-1.186-0.023c-0.4,0-0.806,0.008-1.216,0.023c-0.411,0.015-0.719,0.028-0.924,0.039v-0.324
	c0.359,0,0.613-0.077,0.762-0.231c0.149-0.154,0.223-0.446,0.223-0.878V9.317c0-0.462-0.069-0.803-0.208-1.024
	c-0.138-0.221-0.398-0.331-0.778-0.331V7.639c0.328,0.031,0.647,0.046,0.955,0.046c0.431,0,0.834-0.018,1.209-0.054
	C111.038,7.595,111.385,7.541,111.703,7.469z M110.502,3.666c0.431,0,0.772,0.106,1.024,0.316c0.251,0.211,0.377,0.5,0.377,0.87
	c0,0.369-0.126,0.66-0.377,0.87c-0.252,0.211-0.593,0.316-1.024,0.316c-0.431,0-0.773-0.105-1.024-0.316
	c-0.252-0.21-0.377-0.5-0.377-0.87c0-0.37,0.125-0.66,0.377-0.87C109.729,3.771,110.071,3.666,110.502,3.666z M115.442,3.558v11.734
	c-0.257-0.041-0.519-0.041-0.786,0c-0.267,0.041-0.513,0.11-0.739,0.208c-0.226,0.098-0.416,0.213-0.57,0.346l-0.231-0.138
	c0.041-0.144,0.069-0.287,0.085-0.431c0.016-0.144,0.023-0.287,0.023-0.431v-9.44c0-0.462-0.069-0.803-0.208-1.024
	c-0.139-0.221-0.398-0.331-0.778-0.331V3.727c0.328,0.031,0.647,0.046,0.955,0.046c0.421,0,0.821-0.018,1.201-0.054
	C114.774,3.684,115.123,3.63,115.442,3.558z M117.798,7.423c0.801,0,1.465,0.326,1.994,0.978c0.528,0.652,0.793,1.655,0.793,3.01
	c0,1.068-0.162,1.925-0.485,2.572c-0.323,0.647-0.752,1.114-1.286,1.401c-0.534,0.287-1.119,0.431-1.755,0.431
	c-0.421,0-0.811-0.072-1.17-0.215c-0.36-0.144-0.667-0.38-0.924-0.708l0.216-0.077c0.185,0.226,0.403,0.395,0.654,0.508
	c0.251,0.113,0.5,0.169,0.747,0.169c0.565,0,0.986-0.318,1.263-0.955c0.277-0.637,0.416-1.607,0.416-2.911
	c0-0.883-0.054-1.583-0.162-2.102c-0.108-0.518-0.265-0.888-0.47-1.109c-0.206-0.221-0.452-0.331-0.739-0.331
	c-0.36,0-0.688,0.146-0.985,0.439c-0.298,0.293-0.467,0.701-0.508,1.224l-0.077-0.539c0.185-0.585,0.498-1.029,0.939-1.332
	C116.699,7.575,117.212,7.423,117.798,7.423z M125.825,7.423c0.328,0,0.595,0.069,0.801,0.208c0.205,0.139,0.357,0.316,0.454,0.531
	c0.098,0.215,0.146,0.442,0.146,0.677c0,0.38-0.11,0.691-0.331,0.932c-0.221,0.241-0.511,0.362-0.87,0.362
	c-0.36,0-0.639-0.09-0.839-0.269c-0.2-0.18-0.3-0.418-0.3-0.716c0-0.287,0.064-0.526,0.192-0.716c0.128-0.19,0.29-0.352,0.485-0.485
	c-0.144-0.041-0.288-0.036-0.431,0.016c-0.267,0.041-0.506,0.167-0.716,0.377c-0.211,0.211-0.377,0.459-0.5,0.747
	c-0.123,0.288-0.185,0.57-0.185,0.847v4.081c0,0.493,0.121,0.826,0.362,1.001c0.241,0.175,0.603,0.262,1.086,0.262V15.6
	c-0.236-0.01-0.58-0.023-1.032-0.039c-0.452-0.016-0.924-0.023-1.417-0.023c-0.411,0-0.827,0.008-1.247,0.023
	c-0.421,0.015-0.739,0.028-0.955,0.039v-0.324c0.359,0,0.613-0.077,0.762-0.231c0.149-0.154,0.223-0.446,0.223-0.878V9.317
	c0-0.462-0.069-0.803-0.208-1.024c-0.138-0.221-0.398-0.331-0.778-0.331V7.639c0.328,0.031,0.647,0.046,0.955,0.046
	c0.431,0,0.834-0.018,1.209-0.054c0.375-0.036,0.721-0.09,1.039-0.162v1.432c0.123-0.277,0.287-0.529,0.493-0.755
	c0.205-0.226,0.441-0.403,0.708-0.531C125.199,7.487,125.496,7.423,125.825,7.423z M130.95,7.423c0.903,0,1.612,0.267,2.125,0.801
	c0.513,0.534,0.77,1.407,0.77,2.618h-5.066l-0.031-0.293h3.157c0.01-0.503-0.021-0.968-0.092-1.394
	c-0.072-0.426-0.185-0.767-0.339-1.024c-0.154-0.257-0.359-0.385-0.616-0.385c-0.36,0-0.665,0.226-0.916,0.678
	c-0.252,0.452-0.403,1.201-0.454,2.248l0.046,0.092c-0.01,0.123-0.018,0.252-0.023,0.385c-0.005,0.133-0.008,0.272-0.008,0.416
	c0,0.708,0.1,1.283,0.3,1.725c0.2,0.442,0.454,0.762,0.762,0.962c0.308,0.2,0.621,0.3,0.939,0.3c0.308,0,0.644-0.077,1.009-0.231
	c0.364-0.154,0.706-0.487,1.024-1.001l0.277,0.093c-0.123,0.39-0.318,0.77-0.585,1.139c-0.267,0.37-0.606,0.672-1.016,0.909
	c-0.411,0.236-0.903,0.354-1.478,0.354c-0.698,0-1.314-0.149-1.848-0.446c-0.534-0.298-0.952-0.749-1.255-1.355
	c-0.303-0.606-0.454-1.376-0.454-2.31c0-0.955,0.162-1.75,0.485-2.387c0.323-0.636,0.77-1.111,1.34-1.424
	C129.572,7.58,130.221,7.423,130.95,7.423z M48.645,21.86c0.452,0,0.849,0.075,1.193,0.223c0.344,0.149,0.613,0.398,0.808,0.747
	l-0.185,0.169c-0.133-0.246-0.311-0.423-0.531-0.531c-0.221-0.108-0.454-0.162-0.701-0.162c-0.524,0-0.939,0.305-1.247,0.916
	c-0.308,0.611-0.457,1.553-0.447,2.826c0,0.873,0.059,1.568,0.177,2.087c0.118,0.519,0.287,0.891,0.508,1.116
	c0.221,0.226,0.475,0.339,0.762,0.339c0.349,0,0.662-0.139,0.939-0.416c0.277-0.277,0.426-0.652,0.447-1.124l0.077,0.539
	c-0.154,0.544-0.403,0.958-0.747,1.24c-0.344,0.282-0.793,0.423-1.347,0.423c-0.606,0-1.147-0.149-1.625-0.446
	c-0.477-0.298-0.85-0.757-1.116-1.378c-0.267-0.621-0.4-1.424-0.4-2.41c0-0.934,0.149-1.707,0.447-2.318
	c0.298-0.611,0.706-1.07,1.224-1.378C47.4,22.014,47.988,21.86,48.645,21.86z M52.571,17.979v10.364
	c0,0.462,0.072,0.803,0.216,1.024c0.144,0.221,0.4,0.331,0.77,0.331v0.323c-0.318-0.031-0.637-0.046-0.955-0.046
	c-0.431,0-0.834,0.015-1.209,0.046c-0.375,0.031-0.721,0.087-1.039,0.169V19.827c0-0.462-0.069-0.803-0.208-1.024
	c-0.139-0.221-0.398-0.331-0.778-0.331v-0.323c0.328,0.031,0.647,0.046,0.955,0.046c0.421,0,0.821-0.018,1.201-0.054
	C51.904,18.105,52.253,18.051,52.571,17.979z M57.176,21.86c0.903,0,1.612,0.267,2.125,0.801c0.513,0.534,0.77,1.407,0.77,2.618
	h-5.066l-0.031-0.293h3.157c0.01-0.503-0.021-0.968-0.092-1.394c-0.072-0.426-0.185-0.767-0.339-1.024
	c-0.154-0.257-0.36-0.385-0.616-0.385c-0.36,0-0.665,0.226-0.916,0.678c-0.252,0.452-0.403,1.201-0.454,2.248l0.046,0.092
	c-0.01,0.123-0.018,0.252-0.023,0.385c-0.005,0.133-0.008,0.272-0.008,0.416c0,0.708,0.1,1.283,0.3,1.725
	c0.2,0.442,0.454,0.762,0.762,0.962c0.308,0.2,0.621,0.3,0.939,0.3c0.308,0,0.644-0.077,1.009-0.231
	c0.364-0.154,0.706-0.487,1.024-1.001l0.277,0.093c-0.123,0.39-0.318,0.77-0.585,1.139c-0.267,0.37-0.606,0.672-1.016,0.909
	c-0.411,0.236-0.903,0.354-1.478,0.354c-0.698,0-1.314-0.149-1.848-0.446c-0.534-0.298-0.952-0.749-1.255-1.355
	c-0.303-0.606-0.454-1.376-0.454-2.31c0-0.955,0.162-1.75,0.485-2.387c0.323-0.636,0.77-1.111,1.34-1.424
	C55.797,22.016,56.447,21.86,57.176,21.86z M63.112,17.979v10.625c0,0.431,0.074,0.724,0.223,0.878
	c0.149,0.154,0.403,0.231,0.762,0.231v0.324c-0.195-0.01-0.488-0.023-0.878-0.039c-0.39-0.016-0.785-0.023-1.186-0.023
	c-0.4,0-0.803,0.008-1.209,0.023c-0.406,0.015-0.711,0.028-0.916,0.039v-0.324c0.359,0,0.613-0.077,0.762-0.231
	c0.149-0.154,0.223-0.446,0.223-0.878v-8.778c0-0.462-0.069-0.803-0.208-1.024c-0.139-0.221-0.398-0.331-0.778-0.331v-0.323
	c0.328,0.031,0.647,0.046,0.955,0.046c0.421,0,0.821-0.018,1.201-0.054C62.445,18.105,62.794,18.051,63.112,17.979z M73.013,18.919
	c0.678,0,1.234,0.1,1.671,0.3c0.436,0.2,0.824,0.434,1.163,0.701c0.205,0.154,0.362,0.172,0.47,0.054
	c0.108-0.118,0.182-0.398,0.223-0.839h0.354c-0.021,0.4-0.036,0.886-0.046,1.455c-0.01,0.57-0.016,1.327-0.016,2.271h-0.354
	c-0.051-0.472-0.118-0.875-0.2-1.209c-0.082-0.333-0.195-0.629-0.339-0.885c-0.144-0.257-0.349-0.488-0.616-0.693
	c-0.257-0.257-0.554-0.447-0.893-0.57c-0.339-0.123-0.693-0.185-1.063-0.185c-0.554,0-1.027,0.146-1.417,0.439
	c-0.39,0.293-0.706,0.691-0.947,1.194c-0.241,0.503-0.418,1.07-0.531,1.701c-0.113,0.631-0.169,1.286-0.169,1.963
	c0,0.688,0.059,1.347,0.177,1.979c0.118,0.631,0.303,1.193,0.554,1.686c0.251,0.493,0.577,0.883,0.978,1.17
	c0.4,0.288,0.872,0.431,1.417,0.431c0.339,0,0.68-0.064,1.024-0.192c0.344-0.128,0.639-0.316,0.885-0.562
	c0.4-0.308,0.672-0.69,0.816-1.147c0.144-0.457,0.251-1.065,0.323-1.825h0.354c0,0.975,0.005,1.763,0.016,2.364
	c0.01,0.601,0.025,1.106,0.046,1.517H76.54c-0.041-0.441-0.11-0.719-0.208-0.832c-0.098-0.113-0.259-0.098-0.485,0.046
	c-0.38,0.267-0.783,0.5-1.209,0.701c-0.426,0.2-0.973,0.3-1.64,0.3c-1.088,0-2.04-0.221-2.857-0.662
	c-0.816-0.441-1.45-1.078-1.902-1.909c-0.452-0.832-0.678-1.833-0.678-3.003c0-1.149,0.233-2.156,0.701-3.018
	c0.467-0.862,1.109-1.535,1.925-2.017C71.004,19.16,71.946,18.919,73.013,18.919z M79.394,30.145c-0.688,0-1.186-0.18-1.494-0.539
	c-0.308-0.359-0.462-0.796-0.462-1.309c0-0.441,0.1-0.801,0.3-1.078c0.2-0.277,0.459-0.506,0.778-0.685
	c0.318-0.18,0.655-0.328,1.009-0.446c0.354-0.118,0.693-0.236,1.016-0.354c0.323-0.118,0.585-0.254,0.785-0.408
	c0.2-0.154,0.3-0.349,0.3-0.585v-1.201c0-0.267-0.044-0.506-0.131-0.716c-0.087-0.21-0.221-0.372-0.4-0.485
	c-0.18-0.113-0.413-0.169-0.701-0.169c-0.205,0-0.411,0.028-0.616,0.085c-0.205,0.057-0.375,0.152-0.508,0.285
	c0.287,0.103,0.511,0.259,0.67,0.47c0.159,0.211,0.239,0.449,0.239,0.716c0,0.349-0.121,0.626-0.362,0.832
	c-0.241,0.205-0.526,0.308-0.855,0.308c-0.37,0-0.649-0.116-0.839-0.347c-0.19-0.231-0.285-0.511-0.285-0.839
	c0-0.297,0.074-0.544,0.223-0.739c0.149-0.195,0.357-0.38,0.624-0.555c0.287-0.164,0.634-0.293,1.039-0.385
	c0.405-0.092,0.844-0.139,1.317-0.139c0.472,0,0.898,0.049,1.278,0.146c0.38,0.098,0.698,0.275,0.955,0.531
	c0.236,0.236,0.39,0.526,0.462,0.87c0.072,0.344,0.108,0.778,0.108,1.301v4.189c0,0.246,0.025,0.421,0.077,0.524
	c0.051,0.103,0.139,0.154,0.262,0.154c0.102,0,0.2-0.026,0.293-0.077c0.092-0.051,0.18-0.113,0.262-0.185l0.154,0.262
	c-0.216,0.185-0.465,0.326-0.747,0.423c-0.282,0.098-0.598,0.146-0.947,0.146c-0.616,0-1.024-0.126-1.224-0.377
	c-0.2-0.251-0.306-0.541-0.316-0.87c-0.257,0.421-0.572,0.734-0.947,0.939C80.336,30.042,79.897,30.145,79.394,30.145z
	 M80.58,29.159c0.195,0,0.377-0.046,0.547-0.139c0.169-0.092,0.336-0.256,0.5-0.493v-3.157c-0.123,0.206-0.295,0.377-0.516,0.516
	c-0.221,0.139-0.447,0.287-0.678,0.446c-0.231,0.159-0.424,0.362-0.578,0.608c-0.154,0.246-0.231,0.575-0.231,0.985
	c0,0.442,0.092,0.757,0.277,0.947C80.087,29.064,80.313,29.159,80.58,29.159z M90.676,21.86c0.431,0,0.783,0.054,1.055,0.162
	c0.272,0.108,0.485,0.254,0.639,0.439c0.164,0.195,0.285,0.447,0.362,0.754c0.077,0.308,0.115,0.724,0.115,1.247v4.142
	c0,0.431,0.074,0.724,0.223,0.878c0.149,0.154,0.403,0.231,0.762,0.231v0.324c-0.195-0.01-0.488-0.023-0.878-0.039
	c-0.39-0.016-0.775-0.023-1.155-0.023c-0.39,0-0.773,0.008-1.147,0.023c-0.375,0.015-0.66,0.028-0.855,0.039v-0.324
	c0.308,0,0.524-0.077,0.647-0.231c0.123-0.154,0.185-0.446,0.185-0.878v-4.789c0-0.256-0.026-0.48-0.077-0.67
	c-0.051-0.19-0.144-0.339-0.277-0.446c-0.134-0.108-0.334-0.162-0.601-0.162c-0.431,0-0.793,0.169-1.086,0.508
	c-0.293,0.339-0.439,0.765-0.439,1.278v4.281c0,0.431,0.064,0.724,0.192,0.878c0.128,0.154,0.341,0.231,0.639,0.231v0.324
	c-0.185-0.01-0.454-0.023-0.809-0.039c-0.354-0.016-0.721-0.023-1.101-0.023c-0.39,0-0.791,0.008-1.201,0.023
	c-0.411,0.015-0.719,0.028-0.924,0.039v-0.324c0.359,0,0.613-0.077,0.762-0.231c0.149-0.154,0.223-0.446,0.223-0.878v-4.851
	c0-0.462-0.069-0.803-0.208-1.024c-0.139-0.221-0.398-0.331-0.778-0.331v-0.323c0.328,0.031,0.647,0.046,0.955,0.046
	c0.431,0,0.834-0.018,1.209-0.054c0.375-0.036,0.721-0.09,1.04-0.162v1.386c0.256-0.524,0.606-0.893,1.047-1.109
	C89.639,21.968,90.132,21.86,90.676,21.86z M99.673,21.86c0.431,0,0.783,0.054,1.055,0.162c0.272,0.108,0.485,0.254,0.639,0.439
	c0.164,0.195,0.285,0.447,0.362,0.754c0.077,0.308,0.116,0.724,0.116,1.247v4.142c0,0.431,0.074,0.724,0.223,0.878
	c0.149,0.154,0.403,0.231,0.762,0.231v0.324c-0.195-0.01-0.488-0.023-0.878-0.039c-0.39-0.016-0.775-0.023-1.155-0.023
	c-0.39,0-0.772,0.008-1.147,0.023c-0.375,0.015-0.66,0.028-0.855,0.039v-0.324c0.308,0,0.524-0.077,0.647-0.231
	c0.123-0.154,0.185-0.446,0.185-0.878v-4.789c0-0.256-0.026-0.48-0.077-0.67c-0.051-0.19-0.144-0.339-0.277-0.446
	c-0.134-0.108-0.334-0.162-0.601-0.162c-0.431,0-0.793,0.169-1.086,0.508c-0.293,0.339-0.439,0.765-0.439,1.278v4.281
	c0,0.431,0.064,0.724,0.192,0.878c0.128,0.154,0.341,0.231,0.639,0.231v0.324c-0.185-0.01-0.454-0.023-0.809-0.039
	c-0.354-0.016-0.721-0.023-1.101-0.023c-0.39,0-0.791,0.008-1.201,0.023c-0.411,0.015-0.719,0.028-0.924,0.039v-0.324
	c0.359,0,0.613-0.077,0.762-0.231c0.149-0.154,0.223-0.446,0.223-0.878v-4.851c0-0.462-0.069-0.803-0.208-1.024
	c-0.139-0.221-0.398-0.331-0.778-0.331v-0.323c0.328,0.031,0.647,0.046,0.955,0.046c0.431,0,0.834-0.018,1.209-0.054
	c0.375-0.036,0.721-0.09,1.04-0.162v1.386c0.256-0.524,0.606-0.893,1.047-1.109C98.636,21.968,99.129,21.86,99.673,21.86z
	 M104.766,30.145c-0.688,0-1.186-0.18-1.494-0.539c-0.308-0.359-0.462-0.796-0.462-1.309c0-0.441,0.1-0.801,0.3-1.078
	c0.2-0.277,0.459-0.506,0.778-0.685c0.318-0.18,0.654-0.328,1.009-0.446c0.354-0.118,0.693-0.236,1.016-0.354
	c0.323-0.118,0.585-0.254,0.785-0.408c0.2-0.154,0.3-0.349,0.3-0.585v-1.201c0-0.267-0.044-0.506-0.131-0.716
	c-0.087-0.21-0.221-0.372-0.4-0.485c-0.18-0.113-0.413-0.169-0.701-0.169c-0.205,0-0.411,0.028-0.616,0.085
	c-0.205,0.057-0.375,0.152-0.508,0.285c0.287,0.103,0.511,0.259,0.67,0.47c0.159,0.211,0.239,0.449,0.239,0.716
	c0,0.349-0.121,0.626-0.362,0.832c-0.241,0.205-0.526,0.308-0.855,0.308c-0.37,0-0.649-0.116-0.839-0.347
	c-0.19-0.231-0.285-0.511-0.285-0.839c0-0.297,0.074-0.544,0.223-0.739c0.149-0.195,0.356-0.38,0.624-0.555
	c0.287-0.164,0.634-0.293,1.04-0.385c0.405-0.092,0.844-0.139,1.317-0.139c0.472,0,0.898,0.049,1.278,0.146s0.698,0.275,0.955,0.531
	c0.236,0.236,0.39,0.526,0.462,0.87c0.072,0.344,0.108,0.778,0.108,1.301v4.189c0,0.246,0.025,0.421,0.077,0.524
	c0.051,0.103,0.139,0.154,0.262,0.154c0.103,0,0.2-0.026,0.293-0.077c0.093-0.051,0.18-0.113,0.262-0.185l0.154,0.262
	c-0.216,0.185-0.465,0.326-0.747,0.423c-0.282,0.098-0.598,0.146-0.947,0.146c-0.616,0-1.024-0.126-1.224-0.377
	c-0.2-0.251-0.306-0.541-0.316-0.87c-0.257,0.421-0.572,0.734-0.947,0.939C105.708,30.042,105.269,30.145,104.766,30.145z
	 M105.952,29.159c0.195,0,0.377-0.046,0.547-0.139c0.169-0.092,0.336-0.256,0.5-0.493v-3.157c-0.123,0.206-0.295,0.377-0.516,0.516
	c-0.221,0.139-0.447,0.287-0.678,0.446c-0.231,0.159-0.423,0.362-0.577,0.608c-0.154,0.246-0.231,0.575-0.231,0.985
	c0,0.442,0.092,0.757,0.277,0.947C105.459,29.064,105.684,29.159,105.952,29.159z M112.893,17.995v11.734
	c-0.257-0.041-0.519-0.041-0.786,0c-0.267,0.041-0.513,0.11-0.739,0.208c-0.226,0.098-0.416,0.213-0.57,0.346l-0.231-0.138
	c0.041-0.144,0.069-0.287,0.085-0.431c0.016-0.144,0.023-0.287,0.023-0.431v-9.44c0-0.462-0.069-0.803-0.208-1.024
	c-0.139-0.221-0.398-0.331-0.778-0.331v-0.324c0.328,0.031,0.647,0.046,0.955,0.046c0.421,0,0.821-0.018,1.201-0.054
	C112.226,18.12,112.575,18.067,112.893,17.995z M115.249,21.86c0.801,0,1.465,0.326,1.994,0.978c0.528,0.652,0.793,1.655,0.793,3.01
	c0,1.068-0.162,1.925-0.485,2.572c-0.323,0.647-0.752,1.114-1.286,1.401c-0.534,0.287-1.119,0.431-1.755,0.431
	c-0.421,0-0.811-0.072-1.17-0.215c-0.36-0.144-0.667-0.38-0.924-0.708l0.216-0.077c0.185,0.226,0.403,0.395,0.654,0.508
	c0.251,0.113,0.5,0.169,0.747,0.169c0.565,0,0.986-0.318,1.263-0.955c0.277-0.637,0.416-1.607,0.416-2.911
	c0-0.883-0.054-1.583-0.162-2.102c-0.108-0.518-0.265-0.888-0.47-1.109c-0.206-0.221-0.452-0.331-0.739-0.331
	c-0.36,0-0.688,0.146-0.985,0.439c-0.298,0.293-0.467,0.701-0.508,1.224l-0.077-0.539c0.185-0.585,0.498-1.029,0.939-1.332
	C114.151,22.011,114.664,21.86,115.249,21.86z M121.183,21.906v6.699c0,0.431,0.074,0.724,0.223,0.878
	c0.148,0.154,0.403,0.231,0.762,0.231v0.324c-0.185-0.01-0.472-0.023-0.862-0.039c-0.39-0.016-0.786-0.023-1.186-0.023
	s-0.806,0.008-1.216,0.023c-0.411,0.015-0.719,0.028-0.924,0.039v-0.324c0.359,0,0.613-0.077,0.762-0.231
	c0.149-0.154,0.223-0.446,0.223-0.878v-4.851c0-0.462-0.069-0.803-0.208-1.024c-0.138-0.221-0.398-0.331-0.778-0.331v-0.323
	c0.328,0.031,0.647,0.046,0.955,0.046c0.431,0,0.834-0.018,1.209-0.054C120.518,22.032,120.865,21.978,121.183,21.906z
	 M119.982,18.102c0.431,0,0.772,0.106,1.024,0.316c0.251,0.211,0.377,0.5,0.377,0.87c0,0.369-0.126,0.66-0.377,0.87
	c-0.252,0.211-0.593,0.316-1.024,0.316s-0.773-0.105-1.024-0.316c-0.252-0.21-0.377-0.5-0.377-0.87c0-0.37,0.125-0.66,0.377-0.87
	C119.209,18.208,119.551,18.102,119.982,18.102z M125.188,21.86c0.431,0,0.809,0.054,1.132,0.162
	c0.323,0.108,0.557,0.213,0.701,0.316c0.349,0.236,0.564,0.082,0.647-0.462h0.324c-0.021,0.287-0.036,0.639-0.046,1.055
	c-0.01,0.416-0.016,0.968-0.016,1.655h-0.323c-0.051-0.38-0.149-0.754-0.293-1.124c-0.144-0.37-0.352-0.672-0.624-0.909
	c-0.272-0.236-0.624-0.354-1.055-0.354c-0.298,0-0.549,0.085-0.755,0.254s-0.308,0.414-0.308,0.731c0,0.308,0.092,0.578,0.277,0.809
	c0.185,0.231,0.423,0.452,0.716,0.662c0.293,0.211,0.598,0.434,0.916,0.67c0.513,0.38,0.947,0.762,1.301,1.147
	c0.354,0.385,0.531,0.885,0.531,1.501c0,0.462-0.134,0.865-0.4,1.209c-0.267,0.344-0.619,0.608-1.055,0.793
	c-0.437,0.185-0.922,0.277-1.455,0.277c-0.308,0-0.583-0.031-0.824-0.092c-0.241-0.062-0.449-0.139-0.624-0.231
	c-0.133-0.062-0.259-0.121-0.377-0.177c-0.118-0.056-0.228-0.105-0.331-0.146c-0.103-0.031-0.192,0.005-0.269,0.108
	c-0.077,0.103-0.136,0.246-0.177,0.431h-0.323c0.02-0.328,0.036-0.729,0.046-1.201c0.01-0.472,0.016-1.098,0.016-1.879h0.323
	c0.062,0.555,0.174,1.045,0.339,1.471c0.164,0.426,0.387,0.76,0.67,1.001c0.282,0.241,0.639,0.362,1.07,0.362
	c0.267,0,0.513-0.085,0.739-0.254c0.226-0.169,0.339-0.449,0.339-0.839c0-0.452-0.146-0.826-0.439-1.124
	c-0.293-0.298-0.665-0.621-1.116-0.97c-0.329-0.267-0.639-0.531-0.932-0.793s-0.531-0.549-0.716-0.862
	c-0.185-0.313-0.277-0.67-0.277-1.07c0-0.462,0.123-0.852,0.37-1.17c0.246-0.318,0.572-0.557,0.978-0.716
	C124.292,21.939,124.726,21.86,125.188,21.86z M47.816,32.702h0.86v2.989c0,0.3-0.04,0.558-0.119,0.774
	c-0.079,0.216-0.19,0.395-0.331,0.536c-0.141,0.141-0.313,0.245-0.516,0.311c-0.203,0.066-0.425,0.099-0.668,0.099
	c-1.173,0-1.759-0.536-1.759-1.607v-3.101h0.906v2.923c0,0.181,0.016,0.334,0.05,0.46c0.033,0.125,0.085,0.227,0.155,0.304
	c0.07,0.077,0.159,0.132,0.265,0.165c0.106,0.033,0.229,0.05,0.37,0.05c0.278,0,0.478-0.077,0.602-0.231
	c0.123-0.154,0.185-0.403,0.185-0.747V32.702z M50.931,34.917l-0.364-0.727h-0.033l0.106,0.727v2.414h-0.86v-4.662h0.661
	l1.752,2.466l0.35,0.708h0.033l-0.106-0.708v-2.433h0.86v4.662H52.67L50.931,34.917z M54.548,32.702h0.906v4.629h-0.906V32.702z
	 M58.191,35.42l0.119,0.787h0.033l0.132-0.793l0.886-2.711h0.952l-1.72,4.662h-0.648l-1.732-4.662h1.051L58.191,35.42z
	 M60.982,32.702h2.744v0.807h-1.838v1.078h1.673v0.807h-1.673v1.131h1.872v0.807h-2.777V32.702z M64.764,32.749
	c0.102-0.018,0.211-0.034,0.327-0.05c0.117-0.015,0.234-0.027,0.351-0.036c0.117-0.009,0.23-0.016,0.34-0.02
	c0.11-0.004,0.212-0.007,0.304-0.007c0.216,0,0.429,0.02,0.638,0.059c0.209,0.04,0.397,0.108,0.562,0.205
	c0.165,0.097,0.297,0.23,0.397,0.4c0.099,0.17,0.149,0.383,0.149,0.638c0,0.379-0.088,0.688-0.265,0.926
	c-0.176,0.238-0.412,0.403-0.708,0.496l0.324,0.205l1.058,1.766h-1.045l-1.051-1.812l-0.476-0.086v1.898h-0.906V32.749z
	 M66.153,33.443c-0.093,0-0.184,0.002-0.274,0.007c-0.09,0.004-0.16,0.013-0.208,0.026v1.342h0.383c0.251,0,0.452-0.057,0.602-0.172
	c0.15-0.115,0.225-0.304,0.225-0.569c0-0.198-0.062-0.354-0.185-0.466C66.572,33.499,66.391,33.443,66.153,33.443z M71.073,36.088
	c0-0.141-0.052-0.256-0.155-0.344c-0.104-0.088-0.234-0.168-0.39-0.241c-0.156-0.073-0.326-0.148-0.509-0.225
	c-0.183-0.077-0.353-0.172-0.509-0.284c-0.156-0.112-0.287-0.252-0.39-0.42c-0.104-0.168-0.156-0.381-0.156-0.641
	c0-0.225,0.038-0.42,0.113-0.585c0.075-0.165,0.182-0.303,0.321-0.413c0.139-0.11,0.303-0.192,0.493-0.245
	c0.19-0.053,0.401-0.079,0.635-0.079c0.269,0,0.522,0.023,0.761,0.069c0.238,0.046,0.434,0.113,0.588,0.202l-0.284,0.761
	c-0.097-0.062-0.242-0.118-0.436-0.169c-0.194-0.051-0.403-0.076-0.628-0.076c-0.211,0-0.374,0.042-0.486,0.125
	c-0.113,0.084-0.169,0.196-0.169,0.337c0,0.132,0.052,0.242,0.155,0.331s0.234,0.17,0.39,0.245s0.326,0.152,0.509,0.231
	c0.183,0.079,0.353,0.175,0.509,0.288c0.156,0.113,0.286,0.251,0.39,0.417c0.104,0.165,0.156,0.371,0.156,0.618
	s-0.041,0.46-0.122,0.638c-0.082,0.178-0.196,0.327-0.344,0.446c-0.148,0.119-0.326,0.207-0.536,0.265
	c-0.209,0.057-0.44,0.086-0.691,0.086c-0.331,0-0.621-0.031-0.873-0.093c-0.251-0.062-0.436-0.123-0.555-0.185l0.291-0.774
	c0.049,0.027,0.111,0.055,0.188,0.086c0.077,0.031,0.164,0.059,0.261,0.086c0.097,0.026,0.199,0.048,0.308,0.066
	c0.108,0.018,0.219,0.027,0.334,0.027c0.269,0,0.475-0.045,0.618-0.136C71.001,36.411,71.073,36.273,71.073,36.088z M73.004,32.702
	h0.906v4.629h-0.906V32.702z M75.127,32.702c0.093-0.013,0.197-0.024,0.314-0.033c0.117-0.009,0.237-0.016,0.36-0.02
	c0.123-0.004,0.243-0.008,0.36-0.01c0.117-0.002,0.222-0.003,0.314-0.003c0.41,0,0.76,0.057,1.051,0.172
	c0.291,0.115,0.527,0.276,0.708,0.483c0.181,0.207,0.313,0.454,0.397,0.741c0.084,0.287,0.126,0.602,0.126,0.946
	c0,0.313-0.04,0.615-0.119,0.906c-0.079,0.291-0.211,0.549-0.397,0.774s-0.429,0.406-0.731,0.542
	c-0.302,0.137-0.676,0.205-1.121,0.205c-0.071,0-0.164-0.002-0.281-0.007c-0.117-0.004-0.238-0.01-0.364-0.016
	c-0.126-0.007-0.246-0.013-0.36-0.02c-0.115-0.007-0.201-0.014-0.258-0.023V32.702z M76.548,33.443
	c-0.097,0-0.195,0.002-0.294,0.007s-0.173,0.011-0.222,0.02v3.101c0.018,0.004,0.047,0.008,0.089,0.01
	c0.042,0.002,0.087,0.004,0.136,0.007c0.048,0.002,0.095,0.004,0.139,0.007c0.044,0.002,0.077,0.003,0.099,0.003
	c0.256,0,0.468-0.045,0.638-0.136c0.17-0.09,0.304-0.211,0.403-0.36c0.099-0.15,0.168-0.323,0.208-0.519
	c0.04-0.196,0.059-0.398,0.059-0.605c0-0.181-0.018-0.363-0.053-0.546c-0.035-0.183-0.1-0.347-0.195-0.493
	c-0.095-0.145-0.224-0.264-0.387-0.357C77.007,33.489,76.8,33.443,76.548,33.443z M82.017,36.306h-1.422l-0.35,1.025h-0.906
	l1.666-4.662h0.668l1.666,4.662h-0.952L82.017,36.306z M80.827,35.579h0.992l-0.344-1.032l-0.139-0.727h-0.033l-0.139,0.734
	L80.827,35.579z M84.067,32.702c0.093-0.013,0.197-0.024,0.314-0.033c0.117-0.009,0.237-0.016,0.36-0.02
	c0.123-0.004,0.243-0.008,0.36-0.01c0.117-0.002,0.222-0.003,0.314-0.003c0.41,0,0.76,0.057,1.051,0.172
	c0.291,0.115,0.527,0.276,0.708,0.483c0.181,0.207,0.313,0.454,0.397,0.741c0.084,0.287,0.126,0.602,0.126,0.946
	c0,0.313-0.04,0.615-0.119,0.906c-0.079,0.291-0.211,0.549-0.397,0.774s-0.429,0.406-0.731,0.542
	c-0.302,0.137-0.676,0.205-1.121,0.205c-0.071,0-0.164-0.002-0.281-0.007c-0.117-0.004-0.238-0.01-0.364-0.016
	c-0.126-0.007-0.246-0.013-0.36-0.02c-0.115-0.007-0.201-0.014-0.258-0.023V32.702z M85.489,33.443
	c-0.097,0-0.195,0.002-0.294,0.007s-0.173,0.011-0.222,0.02v3.101c0.018,0.004,0.047,0.008,0.089,0.01
	c0.042,0.002,0.087,0.004,0.136,0.007c0.048,0.002,0.095,0.004,0.139,0.007c0.044,0.002,0.077,0.003,0.099,0.003
	c0.256,0,0.468-0.045,0.638-0.136c0.17-0.09,0.304-0.211,0.403-0.36c0.099-0.15,0.168-0.323,0.208-0.519
	c0.04-0.196,0.059-0.398,0.059-0.605c0-0.181-0.018-0.363-0.053-0.546c-0.035-0.183-0.1-0.347-0.195-0.493
	c-0.095-0.145-0.224-0.264-0.387-0.357C85.947,33.489,85.74,33.443,85.489,33.443z M91.83,34.917l-0.364-0.727h-0.033l0.106,0.727
	v2.414h-0.86v-4.662h0.661l1.752,2.466l0.351,0.708h0.033l-0.106-0.708v-2.433h0.86v4.662h-0.661L91.83,34.917z M97.636,36.306
	h-1.422l-0.35,1.025h-0.906l1.666-4.662h0.668l1.666,4.662h-0.952L97.636,36.306z M96.446,35.579h0.992l-0.344-1.032l-0.139-0.727
	h-0.033l-0.139,0.734L96.446,35.579z M102.821,37.142c-0.141,0.101-0.321,0.173-0.539,0.217c-0.218,0.044-0.442,0.066-0.671,0.066
	c-0.278,0-0.541-0.043-0.79-0.129s-0.469-0.225-0.658-0.417c-0.19-0.192-0.34-0.441-0.453-0.747
	c-0.112-0.306-0.169-0.678-0.169-1.114c0-0.454,0.063-0.834,0.189-1.141c0.125-0.306,0.289-0.553,0.489-0.741
	c0.201-0.187,0.424-0.322,0.671-0.403c0.247-0.082,0.494-0.122,0.741-0.122c0.264,0,0.488,0.018,0.671,0.053
	c0.183,0.035,0.334,0.077,0.453,0.125l-0.179,0.767c-0.102-0.048-0.222-0.084-0.36-0.106s-0.307-0.033-0.506-0.033
	c-0.366,0-0.66,0.13-0.883,0.391c-0.223,0.261-0.334,0.665-0.334,1.213c0,0.238,0.027,0.456,0.079,0.653
	c0.053,0.196,0.133,0.364,0.241,0.504c0.108,0.139,0.242,0.247,0.403,0.325c0.161,0.077,0.347,0.116,0.559,0.116
	c0.198,0,0.366-0.02,0.503-0.059c0.137-0.04,0.256-0.09,0.357-0.152L102.821,37.142z M103.806,32.702h0.906v4.629h-0.906V32.702z
	 M105.783,35.017c0-0.771,0.17-1.366,0.509-1.782c0.34-0.417,0.825-0.625,1.455-0.625c0.331,0,0.619,0.057,0.866,0.172
	c0.247,0.115,0.452,0.278,0.615,0.489c0.163,0.211,0.284,0.465,0.364,0.76c0.079,0.296,0.119,0.624,0.119,0.985
	c0,0.771-0.171,1.365-0.512,1.782c-0.342,0.417-0.825,0.625-1.451,0.625c-0.335,0-0.626-0.057-0.873-0.172
	c-0.247-0.115-0.451-0.278-0.612-0.489c-0.161-0.211-0.281-0.465-0.36-0.76C105.823,35.707,105.783,35.378,105.783,35.017z
	 M106.735,35.017c0,0.234,0.02,0.449,0.059,0.645s0.1,0.365,0.182,0.506c0.082,0.141,0.186,0.251,0.314,0.331
	c0.128,0.079,0.28,0.119,0.456,0.119c0.322,0,0.571-0.125,0.747-0.377c0.176-0.251,0.265-0.659,0.265-1.223
	c0-0.225-0.019-0.434-0.056-0.628c-0.038-0.194-0.096-0.364-0.175-0.509s-0.183-0.259-0.311-0.34s-0.284-0.122-0.469-0.122
	c-0.322,0-0.571,0.129-0.747,0.387C106.824,34.061,106.735,34.466,106.735,35.017z M111.84,34.917l-0.364-0.727h-0.033l0.106,0.727
	v2.414h-0.86v-4.662h0.661l1.752,2.466l0.35,0.708h0.033l-0.106-0.708v-2.433h0.86v4.662h-0.661L111.84,34.917z M117.647,36.306
	h-1.422l-0.35,1.025h-0.906l1.666-4.662h0.668l1.666,4.662h-0.952L117.647,36.306z M116.456,35.579h0.992l-0.344-1.032l-0.139-0.727
	h-0.033l-0.139,0.734L116.456,35.579z M122.626,37.331h-2.929v-4.629h0.906v3.822h2.024V37.331z M125.43,32.702
	c0.093-0.013,0.197-0.024,0.314-0.033c0.117-0.009,0.237-0.016,0.36-0.02c0.123-0.004,0.244-0.008,0.36-0.01
	c0.117-0.002,0.222-0.003,0.314-0.003c0.41,0,0.76,0.057,1.051,0.172c0.291,0.115,0.527,0.276,0.708,0.483
	c0.181,0.207,0.313,0.454,0.397,0.741c0.084,0.287,0.126,0.602,0.126,0.946c0,0.313-0.04,0.615-0.119,0.906
	c-0.079,0.291-0.212,0.549-0.397,0.774c-0.185,0.225-0.429,0.406-0.731,0.542c-0.302,0.137-0.676,0.205-1.121,0.205
	c-0.07,0-0.164-0.002-0.281-0.007c-0.117-0.004-0.238-0.01-0.364-0.016c-0.126-0.007-0.246-0.013-0.36-0.02
	c-0.115-0.007-0.201-0.014-0.258-0.023V32.702z M126.852,33.443c-0.097,0-0.195,0.002-0.294,0.007
	c-0.099,0.004-0.173,0.011-0.222,0.02v3.101c0.018,0.004,0.047,0.008,0.089,0.01c0.042,0.002,0.087,0.004,0.136,0.007
	c0.048,0.002,0.095,0.004,0.139,0.007c0.044,0.002,0.077,0.003,0.099,0.003c0.256,0,0.469-0.045,0.638-0.136
	c0.17-0.09,0.304-0.211,0.403-0.36c0.099-0.15,0.168-0.323,0.208-0.519c0.04-0.196,0.06-0.398,0.06-0.605
	c0-0.181-0.018-0.363-0.053-0.546c-0.035-0.183-0.1-0.347-0.195-0.493s-0.224-0.264-0.387-0.357
	C127.31,33.489,127.103,33.443,126.852,33.443z M130.039,32.702h2.744v0.807h-1.838v1.078h1.673v0.807h-1.673v1.131h1.872v0.807
	h-2.777V32.702z M138.755,37.331h-2.929v-4.629h0.906v3.822h2.024V37.331z M141.836,36.306h-1.422l-0.35,1.025h-0.906l1.666-4.662
	h0.668l1.666,4.662h-0.952L141.836,36.306z M140.646,35.579h0.992l-0.344-1.032l-0.139-0.727h-0.033l-0.139,0.734L140.646,35.579z
	 M145.89,32.749c0.185-0.035,0.389-0.063,0.612-0.083c0.223-0.02,0.444-0.03,0.664-0.03c0.229,0,0.46,0.019,0.691,0.056
	c0.231,0.038,0.44,0.113,0.625,0.225c0.185,0.113,0.336,0.269,0.453,0.469c0.117,0.201,0.175,0.462,0.175,0.784
	c0,0.291-0.051,0.537-0.152,0.737c-0.102,0.201-0.236,0.365-0.403,0.493c-0.168,0.128-0.358,0.22-0.572,0.278
	c-0.214,0.057-0.435,0.086-0.665,0.086c-0.022,0-0.058,0-0.106,0s-0.099-0.001-0.152-0.003c-0.053-0.002-0.105-0.006-0.155-0.01
	c-0.051-0.004-0.087-0.009-0.109-0.013v1.594h-0.906V32.749z M147.239,33.416c-0.088,0-0.172,0.003-0.251,0.01
	c-0.079,0.007-0.143,0.014-0.192,0.023v1.501c0.018,0.004,0.044,0.009,0.079,0.013c0.035,0.004,0.073,0.008,0.112,0.01
	c0.04,0.002,0.078,0.003,0.116,0.003c0.037,0,0.065,0,0.083,0c0.119,0,0.237-0.011,0.354-0.033c0.117-0.022,0.222-0.063,0.314-0.122
	c0.093-0.059,0.166-0.142,0.222-0.248c0.055-0.106,0.083-0.245,0.083-0.417c0-0.145-0.027-0.266-0.079-0.36
	c-0.053-0.095-0.122-0.171-0.208-0.228c-0.086-0.057-0.184-0.097-0.294-0.119S147.353,33.416,147.239,33.416z M152.284,36.306
	h-1.422l-0.35,1.025h-0.906l1.666-4.662h0.668l1.666,4.662h-0.952L152.284,36.306z M151.094,35.579h0.992l-0.344-1.032l-0.139-0.727
	h-0.033l-0.139,0.734L151.094,35.579z M157.925,34.931l0.099-0.919h-0.039l-0.285,0.741l-0.985,1.726h-0.291l-1.038-1.732
	l-0.291-0.734h-0.033l0.132,0.913v2.407h-0.86v-4.629h0.826l1.237,2.116l0.218,0.529h0.027l0.198-0.542l1.17-2.103h0.82v4.629
	h-0.906V34.931z M159.955,32.749c0.185-0.035,0.389-0.063,0.612-0.083c0.223-0.02,0.444-0.03,0.664-0.03
	c0.229,0,0.46,0.019,0.691,0.056c0.231,0.038,0.44,0.113,0.625,0.225c0.185,0.113,0.336,0.269,0.453,0.469
	c0.117,0.201,0.175,0.462,0.175,0.784c0,0.291-0.051,0.537-0.152,0.737c-0.102,0.201-0.236,0.365-0.403,0.493
	c-0.168,0.128-0.358,0.22-0.572,0.278c-0.214,0.057-0.435,0.086-0.665,0.086c-0.022,0-0.058,0-0.106,0s-0.099-0.001-0.152-0.003
	c-0.053-0.002-0.105-0.006-0.155-0.01c-0.051-0.004-0.087-0.009-0.109-0.013v1.594h-0.906V32.749z M161.304,33.416
	c-0.088,0-0.172,0.003-0.251,0.01c-0.079,0.007-0.143,0.014-0.192,0.023v1.501c0.018,0.004,0.044,0.009,0.079,0.013
	c0.035,0.004,0.073,0.008,0.112,0.01c0.04,0.002,0.078,0.003,0.116,0.003c0.037,0,0.065,0,0.083,0c0.119,0,0.237-0.011,0.354-0.033
	c0.117-0.022,0.222-0.063,0.314-0.122c0.093-0.059,0.166-0.142,0.222-0.248c0.055-0.106,0.083-0.245,0.083-0.417
	c0-0.145-0.027-0.266-0.079-0.36c-0.053-0.095-0.122-0.171-0.208-0.228c-0.086-0.057-0.184-0.097-0.294-0.119
	S161.419,33.416,161.304,33.416z M166.35,36.306h-1.422l-0.35,1.025h-0.906l1.666-4.662h0.668l1.666,4.662h-0.952L166.35,36.306z
	 M165.159,35.579h0.992l-0.344-1.032l-0.139-0.727h-0.033l-0.139,0.734L165.159,35.579z"/>
</svg>
