<?xml version="1.0" encoding="utf-8"?>
<!-- Generator: Adobe Illustrator 17.0.0, SVG Export Plug-In . SVG Version: 6.00 Build 0)  -->
<!DOCTYPE svg PUBLIC "-//W3C//DTD SVG 1.1//EN" "http://www.w3.org/Graphics/SVG/1.1/DTD/svg11.dtd">
<svg version="1.1" id="Capa_1" xmlns="http://www.w3.org/2000/svg" xmlns:xlink="http://www.w3.org/1999/xlink" x="0px" y="0px"
	 width="142.759px" height="41.076px" viewBox="0 0 142.759 41.076" enable-background="new 0 0 142.759 41.076"
	 xml:space="preserve">
<polygon fill="#FFFFFF" points="24.137,16.939 23.853,16.939 0.284,16.939 0,16.939 0,17.223 0,40.792 0,41.076 0.284,41.076 
	23.853,41.076 24.137,41.076 24.137,40.792 24.137,17.223 24.137,16.939 "/>
<rect x="0.284" y="17.223" fill-rule="evenodd" clip-rule="evenodd" fill="#C2C3C8" width="23.568" height="23.568"/>
<path fill-rule="evenodd" clip-rule="evenodd" d="M12.004,17.223h11.849v23.568H12.099v-8.257c-2.447-0.42-4.431-1.102-5.118-3.206
	h5.023V17.223z"/>
<path fill-rule="evenodd" clip-rule="evenodd" fill="#F9E800" d="M17.767,11.423v12.1l-0.018,5.789
	c3.319,0.099,2.318-3.052,2.172-3.917L17.767,11.423z"/>
<path fill-rule="evenodd" clip-rule="evenodd" fill="#D58400" d="M15.417,7.475l0.02,21.838c0.648,0,2.312,0,2.312,0
	c1.473-0.533,0.908-2.815,0.695-3.972L15.417,7.475z"/>
<path fill-rule="evenodd" clip-rule="evenodd" fill="#BF1916" d="M11.875,0v29.329l3.561-0.004c2.139-0.416,1.482-2.973,1.461-3.652
	L11.875,0z"/>
<path fill-rule="evenodd" clip-rule="evenodd" fill="#FFFFFF" d="M8.517,36.447c1.546,0.076,2.147-1.212,3.049-1.258h6.466v0.438
	h-6.466C10.762,36.045,9.422,37.378,8.517,36.447z M6.89,35.967c1.37,1.041,3.345-0.868,4.304-0.832
	C9.964,34.437,8.466,36.262,6.89,35.967z M5.861,35.183c1.049,1.063,3.043-0.38,3.973-0.256C8.48,34.224,7.16,35.56,5.861,35.183z
	 M4.452,33.94c1.306,1.582,2.907,0.226,3.953,0.505C7.306,33.52,5.901,34.802,4.452,33.94z M3.239,32.59
	c0.931,1.558,3.347,0.95,4.108,1.132C6.632,32.866,4.456,33.611,3.239,32.59z M2.424,31.079c0.948,2.092,3.35,1.415,3.942,1.94
	C5.532,31.914,3.739,32.495,2.424,31.079z M1.995,29.489c0.242,1.953,2.474,1.64,3.457,2.629C4.394,30.436,3.017,31.11,1.995,29.489
	z M1.772,28.272c0.183,1.461,1.905,1.956,2.753,2.57C3.711,29.441,2.901,29.759,1.772,28.272z M1.619,26.981
	c0.457,1.968,1.521,1.7,2.202,2.634C3.408,28.34,2.036,27.95,1.619,26.981z M1.714,26.124c0.184,1.251,0.763,1.154,1.519,2.063
	C2.951,27.2,2.351,27.285,1.714,26.124z M1.763,25.352c0.182,1.146,0.587,1.082,1.072,1.626C2.589,26.18,2.328,26.317,1.763,25.352z
	 M1.877,24.331c-0.113,1.022,0.461,1.098,0.959,2.006C2.709,25.261,2.116,25.428,1.877,24.331z M2.084,23.561
	c-0.208,0.77,0.264,1.061,0.589,1.684C2.711,24.245,2.282,24.477,2.084,23.561z M2.239,22.721c-0.183,0.731,0.15,1.066,0.434,1.433
	C2.679,23.594,2.299,23.396,2.239,22.721z M2.458,21.996c-0.255,0.757,0.178,0.902,0.343,1.516
	C2.918,22.885,2.479,22.572,2.458,21.996z M3.088,21.155c-0.061,0.161-0.152,0.395-0.073,0.621
	C3.128,21.585,3.064,21.346,3.088,21.155z M2.85,21.446c-0.369,0.37-0.139,0.827,0.022,1.2C2.948,22.215,2.771,21.978,2.85,21.446z"
	/>
<path fill="#FFFfff" d="M30.138,25.794h1.029v3.577c0,0.359-0.047,0.668-0.142,0.926c-0.095,0.258-0.227,0.472-0.396,0.641
	c-0.169,0.169-0.375,0.293-0.617,0.372c-0.243,0.079-0.509,0.119-0.799,0.119c-1.403,0-2.105-0.641-2.105-1.923v-3.712h1.084v3.498
	c0,0.216,0.02,0.4,0.059,0.55c0.04,0.15,0.102,0.272,0.186,0.364c0.084,0.092,0.19,0.158,0.317,0.198
	c0.127,0.04,0.274,0.059,0.443,0.059c0.332,0,0.572-0.092,0.72-0.277c0.148-0.185,0.222-0.483,0.222-0.895V25.794z M35.52,31.335
	v-2.461c0-0.306-0.026-0.563-0.079-0.772c-0.053-0.208-0.132-0.373-0.237-0.495c-0.106-0.121-0.235-0.208-0.388-0.261
	c-0.153-0.053-0.327-0.079-0.522-0.079c-0.317,0-0.575,0.063-0.776,0.19c-0.2,0.127-0.361,0.274-0.483,0.443h-0.032l-0.119-0.522
	H32.07v3.957h1.029V28.77c0.058-0.169,0.154-0.31,0.289-0.423c0.135-0.114,0.299-0.17,0.495-0.17c0.222,0,0.378,0.071,0.471,0.214
	c0.092,0.142,0.139,0.375,0.139,0.696v2.248H35.52z M36.47,27.378v3.957h1.029v-3.957H36.47L36.47,27.378z M36.49,26.645
	c0.114,0.103,0.27,0.154,0.471,0.154c0.2,0,0.363-0.051,0.487-0.154c0.124-0.103,0.186-0.231,0.186-0.384
	c0-0.153-0.062-0.284-0.186-0.392c-0.124-0.108-0.286-0.162-0.487-0.162c-0.2,0-0.357,0.054-0.471,0.162
	c-0.113,0.108-0.17,0.239-0.17,0.392C36.32,26.415,36.376,26.543,36.49,26.645z M39.145,27.378H37.95l1.717,3.997h0.625l1.654-3.997
	h-1.108l-0.673,2.057l-0.111,0.625h-0.04l-0.135-0.61L39.145,27.378z M45.397,30.994l-0.34-0.673
	c-0.09,0.069-0.22,0.136-0.392,0.202c-0.171,0.066-0.365,0.099-0.582,0.099c-0.348,0-0.6-0.085-0.756-0.253
	c-0.156-0.169-0.241-0.419-0.257-0.752h2.374c0.026-0.137,0.046-0.269,0.059-0.396c0.013-0.127,0.02-0.245,0.02-0.356
	c0-0.306-0.045-0.562-0.135-0.768c-0.09-0.206-0.208-0.369-0.356-0.491c-0.148-0.121-0.317-0.208-0.507-0.261
	c-0.19-0.053-0.385-0.079-0.586-0.079c-0.601,0-1.068,0.174-1.401,0.522c-0.332,0.348-0.499,0.871-0.499,1.567
	c0,0.649,0.148,1.16,0.443,1.531c0.296,0.372,0.762,0.558,1.401,0.558c0.306,0,0.595-0.043,0.867-0.131
	C45.024,31.228,45.239,31.121,45.397,30.994L45.397,30.994z M44.436,28.319c0.108,0.153,0.152,0.372,0.131,0.657h-1.472
	c0.026-0.269,0.104-0.484,0.234-0.645c0.129-0.161,0.328-0.242,0.598-0.242C44.157,28.09,44.328,28.166,44.436,28.319z
	 M48.571,27.378c-0.174-0.058-0.33-0.087-0.467-0.087c-0.206,0-0.385,0.053-0.538,0.158c-0.153,0.106-0.274,0.256-0.364,0.451H47.17
	l-0.119-0.522h-0.799v3.957h1.029v-2.556c0.042-0.153,0.125-0.278,0.249-0.376c0.124-0.098,0.278-0.146,0.463-0.146
	c0.132,0,0.28,0.029,0.443,0.087L48.571,27.378z M50.53,30.535c-0.092,0.058-0.215,0.087-0.368,0.087
	c-0.211,0-0.417-0.033-0.617-0.099c-0.2-0.066-0.361-0.133-0.483-0.202l-0.285,0.768c0.153,0.095,0.352,0.178,0.598,0.249
	c0.245,0.071,0.508,0.107,0.787,0.107c0.512,0,0.896-0.115,1.151-0.344c0.256-0.23,0.384-0.545,0.384-0.946
	c0-0.232-0.045-0.422-0.135-0.57c-0.09-0.148-0.2-0.268-0.332-0.36c-0.132-0.092-0.277-0.167-0.435-0.225
	c-0.158-0.058-0.303-0.112-0.435-0.162c-0.132-0.05-0.243-0.104-0.332-0.162c-0.09-0.058-0.135-0.135-0.135-0.23
	c0-0.237,0.153-0.356,0.459-0.356c0.19,0,0.377,0.027,0.562,0.079c0.185,0.053,0.338,0.103,0.459,0.15l0.229-0.744
	c-0.137-0.079-0.327-0.15-0.57-0.213c-0.243-0.063-0.514-0.095-0.815-0.095c-0.438,0-0.773,0.103-1.005,0.309
	c-0.232,0.206-0.348,0.504-0.348,0.894c0,0.237,0.045,0.431,0.135,0.582c0.09,0.151,0.201,0.274,0.333,0.372
	c0.132,0.097,0.277,0.174,0.435,0.229c0.158,0.055,0.303,0.109,0.435,0.162c0.132,0.053,0.243,0.111,0.333,0.174
	c0.09,0.063,0.135,0.148,0.135,0.253C50.668,30.38,50.622,30.477,50.53,30.535z M52.457,27.378v3.957h1.029v-3.957H52.457
	L52.457,27.378z M52.477,26.645c0.114,0.103,0.27,0.154,0.471,0.154c0.2,0,0.363-0.051,0.487-0.154
	c0.124-0.103,0.186-0.231,0.186-0.384c0-0.153-0.062-0.284-0.186-0.392c-0.124-0.108-0.286-0.162-0.487-0.162
	c-0.2,0-0.357,0.054-0.471,0.162c-0.113,0.108-0.17,0.239-0.17,0.392C52.307,26.415,52.363,26.543,52.477,26.645z M57.862,29.942
	v-4.147h-1.029v1.607c-0.105-0.042-0.211-0.073-0.316-0.091c-0.106-0.018-0.24-0.028-0.404-0.028c-0.591,0-1.039,0.187-1.345,0.562
	c-0.306,0.375-0.459,0.899-0.459,1.575c0,0.696,0.137,1.208,0.412,1.535c0.274,0.327,0.66,0.491,1.156,0.491
	c0.269,0,0.503-0.057,0.7-0.17c0.198-0.114,0.35-0.263,0.455-0.447h0.032l0.142,0.514h0.736c-0.042-0.269-0.066-0.514-0.071-0.736
	C57.865,30.385,57.862,30.163,57.862,29.942L57.862,29.942z M55.547,30.266c-0.119-0.206-0.178-0.477-0.178-0.815
	c0-0.475,0.073-0.81,0.218-1.005c0.145-0.195,0.363-0.293,0.653-0.293c0.142,0,0.258,0.015,0.348,0.044
	c0.09,0.029,0.172,0.072,0.245,0.131v1.678c-0.047,0.185-0.129,0.326-0.245,0.423c-0.116,0.098-0.274,0.146-0.475,0.146
	C55.855,30.575,55.666,30.472,55.547,30.266z M58.741,27.607l0.245,0.768c0.148-0.069,0.336-0.124,0.566-0.166
	c0.229-0.042,0.447-0.063,0.653-0.063c0.274,0,0.451,0.065,0.53,0.194c0.079,0.129,0.1,0.342,0.063,0.637
	c-0.348-0.016-0.664-0.004-0.946,0.036c-0.282,0.04-0.525,0.111-0.728,0.214c-0.203,0.103-0.359,0.237-0.467,0.404
	c-0.108,0.166-0.162,0.371-0.162,0.613c0,0.174,0.029,0.331,0.087,0.471c0.058,0.14,0.14,0.261,0.245,0.364
	c0.106,0.103,0.232,0.182,0.38,0.237c0.148,0.055,0.314,0.083,0.499,0.083c0.295,0,0.537-0.059,0.724-0.178
	c0.187-0.119,0.334-0.26,0.439-0.424h0.039l0.166,0.546h0.839c-0.063-0.19-0.103-0.392-0.119-0.605
	c-0.016-0.214-0.022-0.434-0.02-0.661c0.003-0.227,0.012-0.458,0.028-0.692c0.016-0.235,0.024-0.468,0.024-0.701
	c0-0.211-0.022-0.401-0.067-0.57c-0.045-0.169-0.121-0.314-0.23-0.435c-0.108-0.121-0.255-0.215-0.439-0.281
	c-0.185-0.066-0.414-0.099-0.688-0.099c-0.317,0-0.62,0.028-0.91,0.083C59.202,27.437,58.952,27.512,58.741,27.607L58.741,27.607z
	 M59.687,30.428c-0.087-0.082-0.131-0.197-0.131-0.344c0-0.106,0.034-0.193,0.103-0.261c0.068-0.069,0.161-0.121,0.277-0.158
	c0.116-0.037,0.249-0.061,0.4-0.071c0.15-0.01,0.307-0.008,0.471,0.008v0.514c-0.058,0.106-0.148,0.204-0.269,0.297
	c-0.121,0.092-0.285,0.139-0.491,0.139C59.894,30.551,59.774,30.51,59.687,30.428z M66.054,29.942v-4.147h-1.029v1.607
	c-0.106-0.042-0.211-0.073-0.317-0.091c-0.106-0.018-0.24-0.028-0.404-0.028c-0.591,0-1.039,0.187-1.345,0.562
	c-0.306,0.375-0.459,0.899-0.459,1.575c0,0.696,0.137,1.208,0.412,1.535c0.274,0.327,0.66,0.491,1.155,0.491
	c0.269,0,0.503-0.057,0.7-0.17c0.198-0.114,0.35-0.263,0.455-0.447h0.032l0.143,0.514h0.736c-0.042-0.269-0.066-0.514-0.071-0.736
	C66.056,30.385,66.054,30.163,66.054,29.942L66.054,29.942z M63.739,30.266c-0.119-0.206-0.178-0.477-0.178-0.815
	c0-0.475,0.073-0.81,0.218-1.005c0.145-0.195,0.363-0.293,0.653-0.293c0.143,0,0.259,0.015,0.348,0.044
	c0.09,0.029,0.171,0.072,0.245,0.131v1.678c-0.048,0.185-0.129,0.326-0.245,0.423c-0.116,0.098-0.274,0.146-0.475,0.146
	C64.046,30.575,63.857,30.472,63.739,30.266z M72.44,31.374h0.791v-5.58h-1.029v2.912l0.127,0.847h-0.04l-0.419-0.847l-2.097-2.952
	h-0.791v5.58h1.029v-2.889l-0.127-0.871h0.04l0.435,0.871L72.44,31.374z M74.134,27.607l0.245,0.768
	c0.148-0.069,0.337-0.124,0.566-0.166c0.23-0.042,0.447-0.063,0.653-0.063c0.274,0,0.451,0.065,0.53,0.194
	c0.079,0.129,0.1,0.342,0.063,0.637c-0.348-0.016-0.663-0.004-0.946,0.036c-0.282,0.04-0.525,0.111-0.728,0.214
	c-0.203,0.103-0.359,0.237-0.467,0.404c-0.108,0.166-0.162,0.371-0.162,0.613c0,0.174,0.029,0.331,0.087,0.471
	c0.058,0.14,0.14,0.261,0.245,0.364c0.105,0.103,0.232,0.182,0.38,0.237c0.148,0.055,0.314,0.083,0.498,0.083
	c0.296,0,0.537-0.059,0.724-0.178c0.187-0.119,0.334-0.26,0.439-0.424h0.04l0.166,0.546h0.839c-0.063-0.19-0.103-0.392-0.119-0.605
	c-0.016-0.214-0.023-0.434-0.02-0.661c0.003-0.227,0.012-0.458,0.028-0.692c0.016-0.235,0.024-0.468,0.024-0.701
	c0-0.211-0.022-0.401-0.067-0.57c-0.045-0.169-0.121-0.314-0.229-0.435c-0.108-0.121-0.255-0.215-0.439-0.281
	c-0.185-0.066-0.414-0.099-0.689-0.099c-0.317,0-0.62,0.028-0.91,0.083C74.596,27.437,74.345,27.512,74.134,27.607L74.134,27.607z
	 M75.08,30.428c-0.087-0.082-0.131-0.197-0.131-0.344c0-0.106,0.034-0.193,0.103-0.261c0.069-0.069,0.161-0.121,0.277-0.158
	c0.116-0.037,0.249-0.061,0.4-0.071c0.15-0.01,0.307-0.008,0.471,0.008v0.514c-0.058,0.106-0.148,0.204-0.269,0.297
	c-0.121,0.092-0.285,0.139-0.491,0.139C75.287,30.551,75.167,30.51,75.08,30.428z M80.648,30.306
	c-0.095,0.063-0.203,0.118-0.325,0.162c-0.121,0.045-0.269,0.067-0.443,0.067c-0.158,0-0.297-0.03-0.416-0.091
	c-0.119-0.061-0.215-0.144-0.289-0.249c-0.074-0.106-0.129-0.229-0.166-0.372c-0.037-0.142-0.055-0.298-0.055-0.467
	c0-0.411,0.074-0.711,0.222-0.898c0.148-0.187,0.364-0.281,0.649-0.281c0.153,0,0.289,0.016,0.408,0.048
	c0.119,0.032,0.239,0.076,0.36,0.134l0.245-0.839c-0.143-0.074-0.302-0.134-0.479-0.182c-0.177-0.047-0.41-0.071-0.7-0.071
	c-0.575,0-1.013,0.181-1.314,0.542c-0.301,0.361-0.451,0.877-0.451,1.547c0,0.311,0.03,0.596,0.091,0.855
	c0.061,0.258,0.16,0.479,0.297,0.661c0.137,0.182,0.315,0.323,0.534,0.424c0.219,0.1,0.487,0.15,0.803,0.15
	c0.237,0,0.468-0.03,0.692-0.091c0.224-0.061,0.416-0.149,0.574-0.265L80.648,30.306z M81.597,27.378v3.957h1.029v-3.957H81.597
	L81.597,27.378z M81.617,26.645c0.114,0.103,0.27,0.154,0.471,0.154c0.2,0,0.363-0.051,0.487-0.154
	c0.124-0.103,0.186-0.231,0.186-0.384c0-0.153-0.062-0.284-0.186-0.392c-0.124-0.108-0.286-0.162-0.487-0.162
	c-0.2,0-0.357,0.054-0.471,0.162c-0.113,0.108-0.17,0.239-0.17,0.392C81.447,26.415,81.504,26.543,81.617,26.645z M83.449,29.356
	c0,0.311,0.038,0.596,0.115,0.855c0.077,0.258,0.193,0.479,0.348,0.661c0.156,0.182,0.349,0.323,0.582,0.424
	c0.232,0.1,0.507,0.15,0.823,0.15c0.591,0,1.049-0.181,1.373-0.542c0.324-0.361,0.487-0.877,0.487-1.547
	c0-0.311-0.038-0.596-0.115-0.855c-0.077-0.258-0.191-0.479-0.344-0.661c-0.153-0.182-0.346-0.323-0.578-0.423
	c-0.232-0.1-0.506-0.151-0.823-0.151c-0.591,0-1.05,0.181-1.377,0.542C83.613,28.17,83.449,28.686,83.449,29.356L83.449,29.356z
	 M84.723,28.422c0.142-0.19,0.34-0.285,0.594-0.285c0.29,0,0.496,0.112,0.617,0.336c0.121,0.224,0.182,0.518,0.182,0.882
	c0,0.422-0.066,0.731-0.198,0.926c-0.132,0.195-0.332,0.293-0.601,0.293c-0.142,0-0.265-0.03-0.368-0.091
	c-0.103-0.061-0.186-0.146-0.249-0.257c-0.063-0.111-0.111-0.24-0.143-0.388c-0.032-0.148-0.047-0.309-0.047-0.483
	C84.51,28.923,84.581,28.612,84.723,28.422z M91.34,31.335v-2.461c0-0.306-0.027-0.563-0.079-0.772
	c-0.053-0.208-0.132-0.373-0.237-0.495c-0.106-0.121-0.235-0.208-0.388-0.261c-0.153-0.053-0.327-0.079-0.522-0.079
	c-0.317,0-0.575,0.063-0.776,0.19c-0.2,0.127-0.361,0.274-0.483,0.443h-0.032l-0.119-0.522h-0.815v3.957h1.029V28.77
	c0.058-0.169,0.154-0.31,0.289-0.423c0.134-0.114,0.299-0.17,0.495-0.17c0.222,0,0.379,0.071,0.471,0.214
	c0.092,0.142,0.138,0.375,0.138,0.696v2.248H91.34z M92.179,27.607l0.245,0.768c0.148-0.069,0.337-0.124,0.566-0.166
	c0.229-0.042,0.447-0.063,0.653-0.063c0.274,0,0.451,0.065,0.53,0.194c0.079,0.129,0.1,0.342,0.063,0.637
	c-0.348-0.016-0.663-0.004-0.946,0.036c-0.282,0.04-0.525,0.111-0.728,0.214c-0.203,0.103-0.359,0.237-0.467,0.404
	c-0.108,0.166-0.162,0.371-0.162,0.613c0,0.174,0.029,0.331,0.087,0.471c0.058,0.14,0.14,0.261,0.245,0.364
	c0.106,0.103,0.232,0.182,0.38,0.237c0.148,0.055,0.314,0.083,0.498,0.083c0.295,0,0.537-0.059,0.724-0.178
	c0.187-0.119,0.334-0.26,0.439-0.424h0.04l0.166,0.546h0.839c-0.063-0.19-0.103-0.392-0.119-0.605
	c-0.016-0.214-0.022-0.434-0.02-0.661c0.003-0.227,0.012-0.458,0.028-0.692c0.016-0.235,0.024-0.468,0.024-0.701
	c0-0.211-0.023-0.401-0.067-0.57c-0.045-0.169-0.121-0.314-0.23-0.435c-0.108-0.121-0.255-0.215-0.439-0.281
	c-0.185-0.066-0.414-0.099-0.689-0.099c-0.316,0-0.62,0.028-0.91,0.083C92.64,27.437,92.39,27.512,92.179,27.607L92.179,27.607z
	 M93.124,30.428c-0.087-0.082-0.131-0.197-0.131-0.344c0-0.106,0.034-0.193,0.103-0.261c0.068-0.069,0.161-0.121,0.277-0.158
	c0.116-0.037,0.249-0.061,0.399-0.071c0.151-0.01,0.307-0.008,0.471,0.008v0.514c-0.058,0.106-0.148,0.204-0.269,0.297
	c-0.121,0.092-0.285,0.139-0.491,0.139C93.331,30.551,93.212,30.51,93.124,30.428z M97.188,25.794H96.16v4.749
	c0,0.322,0.079,0.553,0.237,0.692c0.158,0.14,0.388,0.21,0.689,0.21c0.185,0,0.364-0.021,0.538-0.063
	c0.174-0.042,0.303-0.084,0.388-0.127l-0.111-0.807c-0.089,0.037-0.165,0.061-0.225,0.071c-0.061,0.011-0.123,0.016-0.186,0.016
	c-0.106,0-0.182-0.042-0.23-0.127c-0.047-0.085-0.071-0.219-0.071-0.404V25.794z M103.821,29.942v-4.147h-1.029v1.607
	c-0.106-0.042-0.211-0.073-0.316-0.091c-0.106-0.018-0.24-0.028-0.404-0.028c-0.591,0-1.039,0.187-1.346,0.562
	c-0.306,0.375-0.459,0.899-0.459,1.575c0,0.696,0.137,1.208,0.412,1.535c0.274,0.327,0.659,0.491,1.156,0.491
	c0.269,0,0.502-0.057,0.7-0.17c0.198-0.114,0.349-0.263,0.455-0.447h0.032l0.143,0.514h0.736c-0.042-0.269-0.066-0.514-0.071-0.736
	C103.823,30.385,103.821,30.163,103.821,29.942L103.821,29.942z M101.506,30.266c-0.119-0.206-0.178-0.477-0.178-0.815
	c0-0.475,0.073-0.81,0.218-1.005c0.145-0.195,0.362-0.293,0.653-0.293c0.142,0,0.259,0.015,0.348,0.044
	c0.089,0.029,0.171,0.072,0.245,0.131v1.678c-0.048,0.185-0.129,0.326-0.245,0.423c-0.116,0.098-0.275,0.146-0.475,0.146
	C101.813,30.575,101.624,30.472,101.506,30.266z M107.889,30.994l-0.34-0.673c-0.089,0.069-0.22,0.136-0.392,0.202
	c-0.172,0.066-0.365,0.099-0.582,0.099c-0.348,0-0.6-0.085-0.756-0.253c-0.156-0.169-0.241-0.419-0.257-0.752h2.374
	c0.026-0.137,0.046-0.269,0.059-0.396c0.013-0.127,0.02-0.245,0.02-0.356c0-0.306-0.045-0.562-0.134-0.768
	c-0.09-0.206-0.209-0.369-0.356-0.491c-0.148-0.121-0.316-0.208-0.507-0.261c-0.19-0.053-0.385-0.079-0.586-0.079
	c-0.601,0-1.068,0.174-1.401,0.522c-0.332,0.348-0.498,0.871-0.498,1.567c0,0.649,0.148,1.16,0.443,1.531
	c0.295,0.372,0.762,0.558,1.401,0.558c0.306,0,0.595-0.043,0.867-0.131C107.515,31.228,107.73,31.121,107.889,30.994L107.889,30.994
	z M106.927,28.319c0.108,0.153,0.152,0.372,0.131,0.657h-1.472c0.026-0.269,0.104-0.484,0.233-0.645
	c0.13-0.161,0.329-0.242,0.598-0.242C106.649,28.09,106.819,28.166,106.927,28.319z M114.275,30.369h-2.422v-4.575h-1.084v5.54
	h3.506V30.369z M114.79,27.607l0.245,0.768c0.148-0.069,0.336-0.124,0.566-0.166c0.229-0.042,0.447-0.063,0.653-0.063
	c0.275,0,0.451,0.065,0.53,0.194c0.079,0.129,0.1,0.342,0.063,0.637c-0.348-0.016-0.663-0.004-0.946,0.036
	c-0.282,0.04-0.525,0.111-0.728,0.214c-0.203,0.103-0.359,0.237-0.467,0.404c-0.108,0.166-0.162,0.371-0.162,0.613
	c0,0.174,0.029,0.331,0.087,0.471c0.058,0.14,0.14,0.261,0.245,0.364c0.106,0.103,0.232,0.182,0.38,0.237
	c0.148,0.055,0.314,0.083,0.499,0.083c0.295,0,0.537-0.059,0.724-0.178c0.187-0.119,0.334-0.26,0.439-0.424h0.04l0.166,0.546h0.839
	c-0.063-0.19-0.103-0.392-0.119-0.605c-0.016-0.214-0.022-0.434-0.02-0.661c0.003-0.227,0.012-0.458,0.027-0.692
	c0.016-0.235,0.024-0.468,0.024-0.701c0-0.211-0.023-0.401-0.067-0.57c-0.045-0.169-0.122-0.314-0.23-0.435
	c-0.108-0.121-0.255-0.215-0.439-0.281c-0.185-0.066-0.414-0.099-0.688-0.099c-0.317,0-0.62,0.028-0.91,0.083
	C115.251,27.437,115.001,27.512,114.79,27.607L114.79,27.607z M115.736,30.428c-0.087-0.082-0.131-0.197-0.131-0.344
	c0-0.106,0.034-0.193,0.103-0.261c0.068-0.069,0.161-0.121,0.277-0.158c0.116-0.037,0.249-0.061,0.4-0.071
	c0.15-0.01,0.307-0.008,0.471,0.008v0.514c-0.058,0.106-0.148,0.204-0.269,0.297c-0.122,0.092-0.285,0.139-0.491,0.139
	C115.943,30.551,115.823,30.51,115.736,30.428z M120.765,25.85v5.485h1.084v-1.907c0.026,0.005,0.07,0.011,0.131,0.016
	c0.061,0.005,0.123,0.009,0.186,0.012c0.063,0.003,0.124,0.004,0.182,0.004c0.058,0,0.1,0,0.127,0c0.274,0,0.54-0.034,0.795-0.103
	c0.256-0.069,0.484-0.179,0.685-0.332c0.2-0.153,0.361-0.349,0.483-0.59c0.121-0.24,0.182-0.534,0.182-0.882
	c0-0.385-0.07-0.698-0.21-0.938c-0.14-0.24-0.321-0.427-0.542-0.562c-0.221-0.135-0.471-0.224-0.748-0.269
	c-0.277-0.045-0.553-0.067-0.827-0.067c-0.264,0-0.529,0.012-0.795,0.036C121.231,25.775,120.987,25.808,120.765,25.85
	L120.765,25.85z M122.783,26.689c0.132,0.027,0.249,0.074,0.352,0.143c0.103,0.069,0.186,0.16,0.249,0.273
	c0.063,0.114,0.095,0.257,0.095,0.431c0,0.206-0.033,0.372-0.099,0.499c-0.066,0.127-0.154,0.226-0.265,0.297
	c-0.111,0.071-0.236,0.12-0.376,0.146c-0.14,0.026-0.281,0.04-0.423,0.04c-0.021,0-0.054,0-0.099,0
	c-0.045,0-0.091-0.001-0.139-0.004c-0.047-0.003-0.092-0.007-0.135-0.012c-0.042-0.005-0.074-0.01-0.095-0.016v-1.797
	c0.058-0.01,0.134-0.02,0.229-0.028c0.095-0.008,0.195-0.012,0.301-0.012C122.517,26.649,122.651,26.662,122.783,26.689z
	 M125.015,27.607l0.245,0.768c0.148-0.069,0.337-0.124,0.566-0.166c0.23-0.042,0.447-0.063,0.653-0.063
	c0.274,0,0.451,0.065,0.53,0.194c0.079,0.129,0.1,0.342,0.063,0.637c-0.348-0.016-0.664-0.004-0.946,0.036
	c-0.282,0.04-0.525,0.111-0.728,0.214c-0.203,0.103-0.359,0.237-0.467,0.404c-0.108,0.166-0.162,0.371-0.162,0.613
	c0,0.174,0.029,0.331,0.087,0.471c0.058,0.14,0.14,0.261,0.245,0.364c0.106,0.103,0.232,0.182,0.38,0.237
	c0.148,0.055,0.314,0.083,0.499,0.083c0.295,0,0.537-0.059,0.724-0.178c0.187-0.119,0.334-0.26,0.439-0.424h0.04l0.166,0.546h0.839
	c-0.063-0.19-0.103-0.392-0.119-0.605c-0.016-0.214-0.022-0.434-0.02-0.661c0.003-0.227,0.012-0.458,0.028-0.692
	c0.016-0.235,0.024-0.468,0.024-0.701c0-0.211-0.022-0.401-0.067-0.57c-0.045-0.169-0.121-0.314-0.23-0.435
	c-0.108-0.121-0.255-0.215-0.439-0.281c-0.185-0.066-0.414-0.099-0.689-0.099c-0.316,0-0.62,0.028-0.91,0.083
	C125.477,27.437,125.226,27.512,125.015,27.607L125.015,27.607z M125.961,30.428c-0.087-0.082-0.131-0.197-0.131-0.344
	c0-0.106,0.034-0.193,0.103-0.261c0.069-0.069,0.161-0.121,0.277-0.158c0.116-0.037,0.249-0.061,0.4-0.071
	c0.151-0.01,0.307-0.008,0.471,0.008v0.514c-0.058,0.106-0.148,0.204-0.269,0.297c-0.121,0.092-0.285,0.139-0.491,0.139
	C126.168,30.551,126.048,30.51,125.961,30.428z M132.241,31.335v-2.596c0.053-0.174,0.133-0.311,0.241-0.411
	c0.108-0.1,0.255-0.151,0.439-0.151c0.227,0,0.373,0.078,0.439,0.234c0.066,0.156,0.099,0.389,0.099,0.701v2.224h1.029V28.96
	c0-0.332-0.024-0.607-0.071-0.823c-0.047-0.216-0.12-0.389-0.218-0.518c-0.098-0.129-0.224-0.22-0.38-0.273
	c-0.156-0.053-0.344-0.079-0.566-0.079c-0.269,0-0.499,0.061-0.688,0.182c-0.19,0.121-0.346,0.285-0.467,0.491
	c-0.09-0.243-0.215-0.416-0.376-0.518c-0.161-0.103-0.368-0.155-0.621-0.155c-0.295,0-0.537,0.063-0.724,0.19
	c-0.187,0.127-0.341,0.274-0.463,0.443h-0.032l-0.119-0.522h-0.799v3.957h1.029v-2.636c0.058-0.153,0.143-0.278,0.253-0.376
	c0.111-0.098,0.256-0.146,0.435-0.146c0.216,0,0.359,0.077,0.428,0.23c0.068,0.153,0.103,0.411,0.103,0.776v2.153H132.241z
	 M135.335,27.378v5.54h1.029v-1.622c0.106,0.053,0.211,0.091,0.317,0.115c0.105,0.024,0.24,0.036,0.404,0.036
	c0.29,0,0.547-0.05,0.772-0.15c0.224-0.1,0.414-0.245,0.57-0.435c0.156-0.19,0.273-0.421,0.352-0.692
	c0.079-0.272,0.119-0.577,0.119-0.914c0-0.696-0.124-1.202-0.372-1.516c-0.248-0.314-0.62-0.471-1.116-0.471
	c-0.269,0-0.497,0.048-0.685,0.142c-0.187,0.095-0.349,0.243-0.487,0.443h-0.032l-0.119-0.475H135.335L135.335,27.378z
	 M137.662,28.422c0.116,0.19,0.174,0.459,0.174,0.807c0,0.48-0.074,0.825-0.221,1.033c-0.148,0.208-0.369,0.313-0.665,0.313
	c-0.143,0-0.257-0.017-0.344-0.051c-0.087-0.034-0.168-0.08-0.242-0.138v-1.646c0.063-0.2,0.152-0.351,0.265-0.451
	c0.113-0.1,0.27-0.15,0.471-0.15C137.359,28.137,137.546,28.232,137.662,28.422z M139.585,27.607l0.246,0.768
	c0.148-0.069,0.336-0.124,0.566-0.166c0.23-0.042,0.447-0.063,0.653-0.063c0.274,0,0.451,0.065,0.53,0.194
	c0.079,0.129,0.1,0.342,0.063,0.637c-0.348-0.016-0.663-0.004-0.946,0.036c-0.282,0.04-0.525,0.111-0.728,0.214
	c-0.203,0.103-0.359,0.237-0.467,0.404c-0.108,0.166-0.162,0.371-0.162,0.613c0,0.174,0.029,0.331,0.087,0.471
	c0.058,0.14,0.14,0.261,0.245,0.364c0.106,0.103,0.232,0.182,0.38,0.237c0.148,0.055,0.314,0.083,0.499,0.083
	c0.296,0,0.537-0.059,0.724-0.178c0.187-0.119,0.334-0.26,0.439-0.424h0.04l0.166,0.546h0.839c-0.063-0.19-0.103-0.392-0.119-0.605
	c-0.016-0.214-0.022-0.434-0.02-0.661c0.003-0.227,0.012-0.458,0.028-0.692c0.016-0.235,0.024-0.468,0.024-0.701
	c0-0.211-0.022-0.401-0.067-0.57c-0.045-0.169-0.121-0.314-0.229-0.435c-0.108-0.121-0.255-0.215-0.439-0.281
	c-0.185-0.066-0.414-0.099-0.689-0.099c-0.317,0-0.62,0.028-0.91,0.083C140.047,27.437,139.796,27.512,139.585,27.607
	L139.585,27.607z M140.531,30.428c-0.087-0.082-0.131-0.197-0.131-0.344c0-0.106,0.034-0.193,0.103-0.261
	c0.069-0.069,0.161-0.121,0.277-0.158c0.116-0.037,0.249-0.061,0.4-0.071c0.15-0.01,0.307-0.008,0.471,0.008v0.514
	c-0.058,0.106-0.148,0.204-0.269,0.297c-0.122,0.092-0.285,0.139-0.491,0.139C140.738,30.551,140.618,30.51,140.531,30.428z"/>
</svg>
