<?xml version="1.0" encoding="utf-8"?>
<!-- Generator: Adobe Illustrator 17.0.0, SVG Export Plug-In . SVG Version: 6.00 Build 0)  -->
<!DOCTYPE svg PUBLIC "-//W3C//DTD SVG 1.1//EN" "http://www.w3.org/Graphics/SVG/1.1/DTD/svg11.dtd">
<svg version="1.1" id="Capa_1" xmlns="http://www.w3.org/2000/svg" xmlns:xlink="http://www.w3.org/1999/xlink" x="0px" y="0px"
	 width="188.197px" height="41.826px" viewBox="0 0 188.197 41.826" enable-background="new 0 0 188.197 41.826"
	 xml:space="preserve">
<path fill="#FFFfff" d="M49.466,35.108c0-0.784-0.158-1.123-0.648-1.123c-0.55,0-0.678,0.55-0.678,2.073
	c0,1.628,0.226,1.922,0.693,1.922c0.392,0,0.678-0.203,0.678-1.364h1.085c0,1.161-0.286,2.163-1.711,2.163
	c-1.628,0-1.832-1.161-1.832-2.796c0-1.635,0.203-2.796,1.832-2.796c1.553,0,1.666,1.138,1.666,1.922H49.466z M51.872,36.804v0.324
	c0,0.475,0.128,0.942,0.513,0.942c0.347,0,0.49-0.264,0.55-0.761h0.935c-0.038,0.942-0.49,1.47-1.47,1.47
	c-1.508,0-1.568-1.161-1.568-2.171c0-1.086,0.211-2.095,1.613-2.095c1.214,0,1.485,0.814,1.485,2.058v0.234H51.872z M52.935,36.186
	c-0.023-0.618-0.098-0.965-0.528-0.965c-0.415,0-0.535,0.43-0.535,0.807v0.158H52.935z M54.251,34.618h0.995v0.475h0.015
	c0.219-0.399,0.596-0.58,1.033-0.58c0.648,0,1.033,0.354,1.033,1.153v3.008h-1.04v-2.796c0-0.407-0.136-0.565-0.445-0.565
	c-0.354,0-0.55,0.218-0.55,0.671v2.691h-1.04V34.618z M58.034,33.457h1.04v1.161h0.603v0.708h-0.603v2.193
	c0,0.317,0.068,0.445,0.369,0.445c0.083,0,0.166-0.008,0.234-0.015v0.724c-0.226,0.023-0.437,0.045-0.678,0.045
	c-0.814,0-0.965-0.249-0.965-1.07v-2.322h-0.528v-0.708h0.528V33.457z M59.861,34.618h0.995v0.543h0.015
	c0.211-0.392,0.505-0.648,0.935-0.648c0.06,0,0.128,0.008,0.188,0.015v0.995c-0.106-0.007-0.219-0.015-0.324-0.015
	c-0.362,0-0.769,0.188-0.769,0.731v2.434h-1.04V34.618z M63.644,34.512c1.251-0.023,1.598,0.724,1.598,2.133
	c0,1.387-0.407,2.133-1.598,2.133c-1.251,0.023-1.598-0.724-1.598-2.133C62.046,35.259,62.453,34.512,63.644,34.512z M63.644,38.07
	c0.422,0,0.558-0.415,0.558-1.425s-0.136-1.425-0.558-1.425c-0.513,0-0.558,0.596-0.558,1.425
	C63.087,37.475,63.132,38.07,63.644,38.07z M69.313,38.243h-0.015c-0.226,0.377-0.513,0.535-0.92,0.535
	c-0.852,0-1.244-0.626-1.244-2.133s0.392-2.133,1.244-2.133c0.392,0,0.656,0.158,0.874,0.482h0.015v-1.704h1.04v5.382h-0.995V38.243
	z M68.717,37.98c0.46,0,0.55-0.452,0.55-1.334c0-0.882-0.09-1.334-0.55-1.334c-0.452,0-0.543,0.452-0.543,1.334
	C68.174,37.527,68.265,37.98,68.717,37.98z M71.679,36.804v0.324c0,0.475,0.128,0.942,0.513,0.942c0.347,0,0.49-0.264,0.55-0.761
	h0.935c-0.038,0.942-0.49,1.47-1.47,1.47c-1.508,0-1.568-1.161-1.568-2.171c0-1.086,0.211-2.095,1.613-2.095
	c1.214,0,1.485,0.814,1.485,2.058v0.234H71.679z M72.742,36.186c-0.023-0.618-0.098-0.965-0.528-0.965
	c-0.415,0-0.535,0.43-0.535,0.807v0.158H72.742z M78.749,33.291v0.889h-1.922v1.266h1.809v0.889h-1.809v1.447h1.997v0.889h-3.083
	v-5.382H78.749z M79.943,37.346v0.136c0,0.354,0.188,0.588,0.543,0.588c0.317,0,0.528-0.158,0.528-0.482
	c0-0.264-0.173-0.384-0.377-0.46l-0.731-0.264c-0.573-0.203-0.867-0.558-0.867-1.131c0-0.671,0.422-1.221,1.492-1.221
	c0.942,0,1.387,0.422,1.387,1.153v0.166h-0.935c0-0.407-0.121-0.61-0.46-0.61c-0.264,0-0.49,0.151-0.49,0.437
	c0,0.196,0.106,0.362,0.452,0.475l0.626,0.211c0.656,0.218,0.897,0.55,0.897,1.161c0,0.852-0.633,1.274-1.508,1.274
	c-1.168,0-1.492-0.513-1.492-1.289v-0.143H79.943z M82.585,33.457h1.04v1.161h0.603v0.708h-0.603v2.193
	c0,0.317,0.068,0.445,0.369,0.445c0.083,0,0.166-0.008,0.234-0.015v0.724c-0.226,0.023-0.437,0.045-0.678,0.045
	c-0.814,0-0.965-0.249-0.965-1.07v-2.322h-0.528v-0.708h0.528V33.457z M86.478,38.198h-0.015c-0.219,0.399-0.595,0.58-1.033,0.58
	c-0.648,0-1.033-0.354-1.033-1.153v-3.007h1.04v2.796c0,0.407,0.136,0.565,0.445,0.565c0.354,0,0.55-0.219,0.55-0.671v-2.691h1.04
	v4.055h-0.995V38.198z M90.017,38.243h-0.015c-0.226,0.377-0.513,0.535-0.92,0.535c-0.852,0-1.244-0.626-1.244-2.133
	s0.392-2.133,1.244-2.133c0.392,0,0.656,0.158,0.874,0.482h0.015v-1.704h1.04v5.382h-0.995V38.243z M89.421,37.98
	c0.46,0,0.55-0.452,0.55-1.334c0-0.882-0.09-1.334-0.55-1.334c-0.452,0-0.543,0.452-0.543,1.334
	C88.879,37.527,88.969,37.98,89.421,37.98z M91.49,33.231h1.04v0.889h-1.04V33.231z M91.49,34.618h1.04v4.055h-1.04V34.618z
	 M94.482,34.512c1.251-0.023,1.598,0.724,1.598,2.133c0,1.387-0.407,2.133-1.598,2.133c-1.251,0.023-1.598-0.724-1.598-2.133
	C92.884,35.259,93.291,34.512,94.482,34.512z M94.482,38.07c0.422,0,0.558-0.415,0.558-1.425s-0.136-1.425-0.558-1.425
	c-0.513,0-0.558,0.596-0.558,1.425C93.924,37.475,93.97,38.07,94.482,38.07z M97.18,37.346v0.136c0,0.354,0.188,0.588,0.543,0.588
	c0.317,0,0.528-0.158,0.528-0.482c0-0.264-0.173-0.384-0.377-0.46l-0.731-0.264c-0.573-0.203-0.867-0.558-0.867-1.131
	c0-0.671,0.422-1.221,1.493-1.221c0.942,0,1.387,0.422,1.387,1.153v0.166H98.22c0-0.407-0.121-0.61-0.46-0.61
	c-0.264,0-0.49,0.151-0.49,0.437c0,0.196,0.106,0.362,0.452,0.475l0.626,0.211c0.656,0.218,0.897,0.55,0.897,1.161
	c0,0.852-0.633,1.274-1.508,1.274c-1.168,0-1.492-0.513-1.492-1.289v-0.143H97.18z M101.28,38.673v-5.382h1.085v5.382H101.28z
	 M102.877,34.618h0.995v0.475h0.015c0.219-0.399,0.596-0.58,1.033-0.58c0.648,0,1.033,0.354,1.033,1.153v3.008h-1.04v-2.796
	c0-0.407-0.136-0.565-0.445-0.565c-0.354,0-0.55,0.218-0.55,0.671v2.691h-1.04V34.618z M106.66,33.457h1.04v1.161h0.603v0.708H107.7
	v2.193c0,0.317,0.068,0.445,0.369,0.445c0.083,0,0.166-0.008,0.234-0.015v0.724c-0.226,0.023-0.437,0.045-0.678,0.045
	c-0.814,0-0.965-0.249-0.965-1.07v-2.322h-0.528v-0.708h0.528V33.457z M109.373,36.804v0.324c0,0.475,0.128,0.942,0.513,0.942
	c0.347,0,0.49-0.264,0.55-0.761h0.935c-0.038,0.942-0.49,1.47-1.47,1.47c-1.508,0-1.568-1.161-1.568-2.171
	c0-1.086,0.211-2.095,1.613-2.095c1.214,0,1.485,0.814,1.485,2.058v0.234H109.373z M110.436,36.186
	c-0.023-0.618-0.098-0.965-0.528-0.965c-0.415,0-0.535,0.43-0.535,0.807v0.158H110.436z M111.752,34.618h0.995v0.543h0.015
	c0.211-0.392,0.505-0.648,0.935-0.648c0.06,0,0.128,0.008,0.188,0.015v0.995c-0.106-0.007-0.219-0.015-0.324-0.015
	c-0.362,0-0.769,0.188-0.769,0.731v2.434h-1.04V34.618z M116.146,38.243h-0.015c-0.226,0.377-0.513,0.535-0.92,0.535
	c-0.852,0-1.244-0.626-1.244-2.133s0.392-2.133,1.244-2.133c0.392,0,0.656,0.158,0.874,0.482h0.015v-1.704h1.04v5.382h-0.995V38.243
	z M115.55,37.98c0.46,0,0.55-0.452,0.55-1.334c0-0.882-0.09-1.334-0.55-1.334c-0.452,0-0.543,0.452-0.543,1.334
	C115.007,37.527,115.098,37.98,115.55,37.98z M117.619,33.231h1.04v0.889h-1.04V33.231z M117.619,34.618h1.04v4.055h-1.04V34.618z
	 M119.92,37.346v0.136c0,0.354,0.189,0.588,0.543,0.588c0.316,0,0.527-0.158,0.527-0.482c0-0.264-0.173-0.384-0.377-0.46
	l-0.731-0.264c-0.573-0.203-0.867-0.558-0.867-1.131c0-0.671,0.422-1.221,1.492-1.221c0.942,0,1.387,0.422,1.387,1.153v0.166h-0.935
	c0-0.407-0.12-0.61-0.46-0.61c-0.264,0-0.49,0.151-0.49,0.437c0,0.196,0.106,0.362,0.452,0.475l0.625,0.211
	c0.656,0.218,0.897,0.55,0.897,1.161c0,0.852-0.633,1.274-1.507,1.274c-1.168,0-1.492-0.513-1.492-1.289v-0.143H119.92z
	 M124.246,36.08c0-0.392-0.075-0.814-0.467-0.814c-0.513,0-0.596,0.452-0.596,1.387c0,1.003,0.09,1.417,0.558,1.417
	c0.347,0,0.505-0.294,0.505-0.95h0.995c0,1.063-0.445,1.658-1.545,1.658c-1.04,0-1.553-0.505-1.553-2.133
	c0-1.666,0.686-2.133,1.643-2.133c0.957,0,1.455,0.61,1.455,1.568H124.246z M125.576,33.231h1.04v0.889h-1.04V33.231z
	 M125.576,34.618h1.04v4.055h-1.04V34.618z M127.087,34.618h0.995v0.429h0.015c0.226-0.377,0.513-0.535,0.919-0.535
	c0.852,0,1.244,0.626,1.244,2.133s-0.392,2.133-1.244,2.133c-0.392,0-0.656-0.158-0.874-0.482h-0.015V40h-1.04V34.618z
	 M128.678,37.98c0.452,0,0.543-0.452,0.543-1.334c0-0.882-0.09-1.334-0.543-1.334c-0.46,0-0.55,0.452-0.55,1.334
	C128.128,37.527,128.218,37.98,128.678,37.98z M130.649,33.291h1.04v5.382h-1.04V33.291z M132.177,33.231h1.04v0.889h-1.04V33.231z
	 M132.177,34.618h1.04v4.055h-1.04V34.618z M133.688,34.618h0.995v0.475h0.015c0.218-0.399,0.595-0.58,1.033-0.58
	c0.648,0,1.033,0.354,1.033,1.153v3.008h-1.04v-2.796c0-0.407-0.136-0.565-0.445-0.565c-0.354,0-0.55,0.218-0.55,0.671v2.691h-1.04
	V34.618z M137.198,35.862v-0.098c0-0.934,0.641-1.251,1.425-1.251c1.236,0,1.47,0.513,1.47,1.244v2.133
	c0,0.377,0.023,0.55,0.128,0.784h-0.995c-0.068-0.128-0.098-0.287-0.128-0.422h-0.015c-0.241,0.422-0.535,0.528-1.033,0.528
	c-0.724,0-0.98-0.618-0.98-1.161c0-0.761,0.309-1.07,1.025-1.266l0.588-0.158c0.309-0.083,0.415-0.203,0.415-0.475
	c0-0.309-0.136-0.498-0.482-0.498c-0.317,0-0.482,0.211-0.482,0.528v0.113H137.198z M139.098,36.646
	c-0.143,0.106-0.317,0.173-0.445,0.203c-0.422,0.09-0.588,0.294-0.588,0.656c0,0.309,0.113,0.565,0.392,0.565
	s0.641-0.181,0.641-0.626V36.646z M140.575,34.618h0.995v0.543h0.015c0.211-0.392,0.505-0.648,0.935-0.648
	c0.06,0,0.128,0.008,0.188,0.015v0.995c-0.106-0.007-0.219-0.015-0.324-0.015c-0.362,0-0.769,0.188-0.769,0.731v2.434h-1.04V34.618z
	 M142.903,33.231h1.04v0.889h-1.04V33.231z M142.903,34.618h1.04v4.055h-1.04V34.618z M145.895,34.512
	c1.251-0.023,1.598,0.724,1.598,2.133c0,1.387-0.407,2.133-1.598,2.133c-1.251,0.023-1.598-0.724-1.598-2.133
	C144.298,35.259,144.705,34.512,145.895,34.512z M145.895,38.07c0.422,0,0.558-0.415,0.558-1.425s-0.136-1.425-0.558-1.425
	c-0.513,0-0.558,0.596-0.558,1.425C145.338,37.475,145.383,38.07,145.895,38.07z M148.593,37.346v0.136
	c0,0.354,0.188,0.588,0.543,0.588c0.317,0,0.528-0.158,0.528-0.482c0-0.264-0.173-0.384-0.377-0.46l-0.731-0.264
	c-0.573-0.203-0.867-0.558-0.867-1.131c0-0.671,0.422-1.221,1.492-1.221c0.942,0,1.387,0.422,1.387,1.153v0.166h-0.935
	c0-0.407-0.121-0.61-0.46-0.61c-0.264,0-0.49,0.151-0.49,0.437c0,0.196,0.106,0.362,0.452,0.475l0.626,0.211
	c0.656,0.218,0.897,0.55,0.897,1.161c0,0.852-0.633,1.274-1.507,1.274c-1.168,0-1.493-0.513-1.493-1.289v-0.143H148.593z
	 M154.691,38.243h-0.015c-0.226,0.377-0.513,0.535-0.919,0.535c-0.852,0-1.244-0.626-1.244-2.133s0.392-2.133,1.244-2.133
	c0.392,0,0.656,0.158,0.874,0.482h0.015v-1.704h1.04v5.382h-0.995V38.243z M154.096,37.98c0.46,0,0.55-0.452,0.55-1.334
	c0-0.882-0.091-1.334-0.55-1.334c-0.452,0-0.543,0.452-0.543,1.334C153.553,37.527,153.643,37.98,154.096,37.98z M157.057,36.804
	v0.324c0,0.475,0.128,0.942,0.513,0.942c0.347,0,0.49-0.264,0.55-0.761h0.935c-0.038,0.942-0.49,1.47-1.47,1.47
	c-1.507,0-1.568-1.161-1.568-2.171c0-1.086,0.211-2.095,1.613-2.095c1.213,0,1.485,0.814,1.485,2.058v0.234H157.057z M158.12,36.186
	c-0.023-0.618-0.098-0.965-0.527-0.965c-0.415,0-0.535,0.43-0.535,0.807v0.158H158.12z M159.46,33.291h1.04v5.382h-1.04V33.291z
	 M164.993,35.108c0-0.784-0.158-1.123-0.648-1.123c-0.55,0-0.678,0.55-0.678,2.073c0,1.628,0.226,1.922,0.693,1.922
	c0.392,0,0.678-0.203,0.678-1.364h1.086c0,1.161-0.287,2.163-1.711,2.163c-1.628,0-1.832-1.161-1.832-2.796
	c0-1.635,0.203-2.796,1.832-2.796c1.553,0,1.666,1.138,1.666,1.922H164.993z M166.471,35.862v-0.098
	c0-0.934,0.641-1.251,1.425-1.251c1.236,0,1.47,0.513,1.47,1.244v2.133c0,0.377,0.023,0.55,0.128,0.784h-0.995
	c-0.068-0.128-0.098-0.287-0.128-0.422h-0.015c-0.241,0.422-0.535,0.528-1.033,0.528c-0.724,0-0.98-0.618-0.98-1.161
	c0-0.761,0.309-1.07,1.025-1.266l0.588-0.158c0.309-0.083,0.415-0.203,0.415-0.475c0-0.309-0.136-0.498-0.482-0.498
	c-0.317,0-0.482,0.211-0.482,0.528v0.113H166.471z M168.371,36.646c-0.143,0.106-0.317,0.173-0.445,0.203
	c-0.422,0.09-0.588,0.294-0.588,0.656c0,0.309,0.113,0.565,0.392,0.565c0.279,0,0.641-0.181,0.641-0.626V36.646z M169.848,34.618
	h0.995v0.475h0.015c0.218-0.399,0.595-0.58,1.033-0.58c0.648,0,1.033,0.354,1.033,1.153v3.008h-1.04v-2.796
	c0-0.407-0.136-0.565-0.445-0.565c-0.354,0-0.55,0.218-0.55,0.671v2.691h-1.04V34.618z M173.382,34.618h0.995v0.475h0.015
	c0.218-0.399,0.595-0.58,1.033-0.58c0.648,0,1.033,0.354,1.033,1.153v3.008h-1.04v-2.796c0-0.407-0.136-0.565-0.445-0.565
	c-0.354,0-0.55,0.218-0.55,0.671v2.691h-1.04V34.618z M176.892,35.862v-0.098c0-0.934,0.641-1.251,1.425-1.251
	c1.236,0,1.47,0.513,1.47,1.244v2.133c0,0.377,0.023,0.55,0.128,0.784h-0.995c-0.068-0.128-0.098-0.287-0.128-0.422h-0.015
	c-0.241,0.422-0.535,0.528-1.033,0.528c-0.724,0-0.98-0.618-0.98-1.161c0-0.761,0.309-1.07,1.025-1.266l0.588-0.158
	c0.309-0.083,0.415-0.203,0.415-0.475c0-0.309-0.136-0.498-0.482-0.498c-0.317,0-0.482,0.211-0.482,0.528v0.113H176.892z
	 M178.792,36.646c-0.143,0.106-0.317,0.173-0.445,0.203c-0.422,0.09-0.588,0.294-0.588,0.656c0,0.309,0.113,0.565,0.392,0.565
	c0.279,0,0.641-0.181,0.641-0.626V36.646z M180.269,33.291h1.04v1.704h0.015c0.219-0.324,0.482-0.482,0.874-0.482
	c0.852,0,1.244,0.626,1.244,2.133s-0.392,2.133-1.244,2.133c-0.407,0-0.693-0.158-0.919-0.535h-0.015v0.43h-0.995V33.291z
	 M181.86,37.98c0.452,0,0.543-0.452,0.543-1.334c0-0.882-0.09-1.334-0.543-1.334c-0.46,0-0.55,0.452-0.55,1.334
	C181.309,37.527,181.4,37.98,181.86,37.98z M183.831,33.231h1.04v0.889h-1.04V33.231z M183.831,34.618h1.04v4.055h-1.04V34.618z
	 M186.132,37.346v0.136c0,0.354,0.188,0.588,0.543,0.588c0.317,0,0.528-0.158,0.528-0.482c0-0.264-0.173-0.384-0.377-0.46
	l-0.731-0.264c-0.573-0.203-0.867-0.558-0.867-1.131c0-0.671,0.422-1.221,1.493-1.221c0.942,0,1.387,0.422,1.387,1.153v0.166h-0.935
	c0-0.407-0.121-0.61-0.46-0.61c-0.264,0-0.49,0.151-0.49,0.437c0,0.196,0.106,0.362,0.452,0.475l0.626,0.211
	c0.656,0.218,0.897,0.55,0.897,1.161c0,0.852-0.633,1.274-1.507,1.274c-1.168,0-1.492-0.513-1.492-1.289v-0.143H186.132z
	 M47.054,17.698c0-7.943,6.371-14.149,14.563-14.149c4.179,0,8.109,1.779,10.55,4.716c0.579,0.662,0.869,1.324,0.869,2.068
	c0,1.365-1.158,2.524-2.606,2.524c-0.786,0-1.531-0.372-2.151-1.076c-1.779-2.069-4.013-3.061-6.661-3.061
	c-5.13,0-8.812,3.765-8.812,9.019c0,5.213,3.682,8.936,8.812,8.936c2.606,0,4.799-0.993,6.619-3.061
	c0.662-0.703,1.365-1.075,2.193-1.075c1.448,0,2.565,1.158,2.565,2.524c0,0.662-0.248,1.324-0.869,2.069
	c-2.399,2.937-6.33,4.716-10.55,4.716C53.383,31.847,47.054,25.641,47.054,17.698z M74.44,28.578V6.817
	c0-1.572,1.2-2.772,2.772-2.772h13.363c1.489,0,2.565,1.076,2.565,2.524c0,1.407-1.117,2.524-2.565,2.524h-10.55v5.544h7.24
	c1.407,0,2.441,1.034,2.441,2.4c0,1.324-1.034,2.358-2.441,2.358h-7.24v6.909h11.046c1.489,0,2.565,1.117,2.565,2.524
	c0,1.448-1.117,2.524-2.565,2.524H77.212C75.639,31.35,74.44,30.15,74.44,28.578z M95.216,28.992V6.403
	c0-1.613,1.158-2.855,2.813-2.855c1.613,0,2.772,1.241,2.772,2.855v22.589c0,1.614-1.158,2.855-2.772,2.855
	C96.375,31.847,95.216,30.606,95.216,28.992z M102.382,17.698c0-7.943,6.371-14.149,14.563-14.149c4.179,0,8.109,1.779,10.55,4.716
	c0.579,0.662,0.869,1.324,0.869,2.068c0,1.365-1.158,2.524-2.606,2.524c-0.786,0-1.531-0.372-2.151-1.076
	c-1.779-2.069-4.013-3.061-6.661-3.061c-5.13,0-8.812,3.765-8.812,9.019c0,5.213,3.682,8.936,8.812,8.936
	c2.606,0,4.799-0.993,6.619-3.061c0.662-0.703,1.365-1.075,2.193-1.075c1.448,0,2.565,1.158,2.565,2.524
	c0,0.662-0.248,1.324-0.869,2.069c-2.4,2.937-6.33,4.716-10.55,4.716C108.712,31.847,102.382,25.641,102.382,17.698z
	 M148.137,19.187v9.846c0,1.614-1.158,2.772-2.689,2.772c-1.365,0-2.441-0.91-2.689-2.151c-1.489,1.407-3.558,2.193-5.999,2.193
	c-4.22,0-7.074-2.482-7.074-6.123c0-3.682,2.937-5.958,7.736-5.958h5.13v-0.91c0-2.275-1.365-3.599-3.848-3.599
	c-1.448,0-2.73,0.496-3.93,1.531c-0.662,0.496-1.117,0.662-1.655,0.662c-1.365,0-2.399-1.034-2.399-2.275
	c0-0.786,0.414-1.531,1.158-2.234c1.738-1.613,4.427-2.524,7.406-2.524C144.91,10.416,148.137,13.602,148.137,19.187z
	 M142.552,23.696v-0.248h-4.385c-1.862,0-2.855,0.703-2.855,2.069c0,1.365,1.117,2.234,2.937,2.234
	C140.691,27.751,142.552,26.013,142.552,23.696z M168.167,18.649v10.343c0,1.655-1.158,2.855-2.772,2.855
	c-1.572,0-2.772-1.241-2.772-2.855v-9.598c0-2.358-1.531-3.972-3.806-3.972c-2.275,0-3.889,1.655-3.889,3.972v9.598
	c0,1.655-1.2,2.855-2.772,2.855c-1.613,0-2.813-1.241-2.813-2.855V13.229c0-1.613,1.2-2.813,2.772-2.813
	c1.282,0,2.317,0.869,2.606,2.11c1.448-1.324,3.475-2.11,5.751-2.11C165.147,10.416,168.167,13.643,168.167,18.649z M188.197,18.649
	v10.343c0,1.655-1.158,2.855-2.772,2.855c-1.572,0-2.772-1.241-2.772-2.855v-9.598c0-2.358-1.531-3.972-3.806-3.972
	c-2.275,0-3.889,1.655-3.889,3.972v9.598c0,1.655-1.2,2.855-2.772,2.855c-1.613,0-2.813-1.241-2.813-2.855V13.229
	c0-1.613,1.2-2.813,2.772-2.813c1.282,0,2.317,0.869,2.606,2.11c1.448-1.324,3.475-2.11,5.751-2.11
	C185.177,10.416,188.197,13.643,188.197,18.649z M20.913,0c11.55,0,20.913,9.363,20.913,20.913s-9.363,20.913-20.913,20.913
	S0,32.463,0,20.913S9.363,0,20.913,0z M39.925,20.913c0-10.483-8.529-19.012-19.012-19.012S1.901,10.43,1.901,20.913
	c0,10.483,8.529,19.012,19.012,19.012S39.925,31.396,39.925,20.913z M37.989,19.839c-1.622,1.827-3.712,4.192-4.71,5.921
	c-1.366,2.366-1.815,3.481-3.364,6.749c1.265-5.352,1.78-7.742,1.78-10.665s-2.099-10.044-2.989-12.574
	c-0.537,2.567-2.764,8.526-2.764,12.03c0,4.509,0.731,6.577,2.227,11.269c-1.89-3.173-3.276-5.853-5.122-8.285
	c-1.623-2.138-6.521-5.991-8.029-7.176c0.462,1.3,1.764,7.132,4.217,10.18c1.718,2.136,4.29,4.469,7.902,6.52h-0.047
	c-2.754-0.925-4.984-1.73-7.332-2.235c-2.064-0.444-6.827-0.385-8.334-0.319c2.445,2.356,3.772,2.522,6.746,3.312
	c2.488,0.661,7.125,0.351,8.84,0.422c-1.998,0.365-2.58,0.544-4.242,0.97c-0.989,0.253-3.039,1.164-4.589,1.846
	c0.275,0.044,0.552,0.082,0.832,0.113c0.625,0.069,1.259,0.106,1.902,0.106c9.435,0,17.111-7.676,17.111-17.111
	c0-0.232-0.006-0.462-0.015-0.691C38.003,20.094,37.997,19.966,37.989,19.839z"/>
</svg>
